<?xml version="1.0" encoding="UTF-8" standalone="no"?>
<!-- Created with Inkscape (http://www.inkscape.org/) -->

<svg
   xmlns:dc="http://purl.org/dc/elements/1.1/"
   xmlns:cc="http://creativecommons.org/ns#"
   xmlns:rdf="http://www.w3.org/1999/02/22-rdf-syntax-ns#"
   xmlns:svg="http://www.w3.org/2000/svg"
   xmlns="http://www.w3.org/2000/svg"
   xmlns:sodipodi="http://sodipodi.sourceforge.net/DTD/sodipodi-0.dtd"
   xmlns:inkscape="http://www.inkscape.org/namespaces/inkscape"
   id="svg2985"
   version="1.1"
   inkscape:version="0.48.4 r9939"
   width="323"
   height="221"
   sodipodi:docname="newdualvca_pcbrd.dxf">
  <metadata
     id="metadata2991">
    <rdf:RDF>
      <cc:Work
         rdf:about="">
        <dc:format>image/svg+xml</dc:format>
        <dc:type
           rdf:resource="http://purl.org/dc/dcmitype/StillImage" />
        <dc:title></dc:title>
      </cc:Work>
    </rdf:RDF>
  </metadata>
  <defs
     id="defs2989" />
  <sodipodi:namedview
     pagecolor="#ffffff"
     bordercolor="#666666"
     borderopacity="1"
     objecttolerance="10"
     gridtolerance="10"
     guidetolerance="10"
     inkscape:pageopacity="0"
     inkscape:pageshadow="2"
     inkscape:window-width="1478"
     inkscape:window-height="966"
     id="namedview2987"
     showgrid="false"
     inkscape:zoom="3.5063746"
     inkscape:cx="161.5"
     inkscape:cy="110.5"
     inkscape:window-x="0"
     inkscape:window-y="0"
     inkscape:window-maximized="0"
     inkscape:current-layer="svg2985" />
  <path
     style="fill:#000000"
     d="m 318.23707,216.92207 1.2,-1.2 -0.0318,-104.05 -0.0318,-104.0500024 -1.32844,-1.7500002 -1.32844,-1.75 -127.63975,0 -127.639759,0 0,28.8450136 0,28.845013 -1.82874,1.654987 -1.82874,1.654988 -15.17126,0 -15.17126,0 0,5.377555 0,5.377556 -1.5,1.244889 -1.5,1.244889 0,1.722568 0,1.722567 1.82874,1.65499 1.82874,1.65499 1.51627,0 1.51627,0 1.65499,-1.82875 1.65499,-1.82874 0,-1.516267 0,-1.516272 -2,-1.809975 -2,-1.809975 0,-3.345013 0,-3.345012 14.37756,0 14.37755,0 1.24489,1.5 1.24489,1.5 1.75511,0 1.75511,0 1.24489,-1.5 1.24489,-1.5 8.87755,0 8.87756,0 0,11.893011 0,11.893013 -1.55265,0.5958 -1.55264,0.59581 0.30264,5.261184 0.30265,5.261183 2.5,0 2.5,0 0.27159,-19.249997 0.2716,-19.250004 -9.86661,0 -9.8666,0 -1.65499,-1.828741 -1.65499,-1.82874 0,-26.67126 0,-26.6712604 44.999999,0 45,0 0,1.013569 c 0,0.557464 -0.55922,1.9090194 -1.24271,3.0034574 l -1.2427,1.989887 1.10169,1.746544 1.10169,1.746544 2.28203,0 2.28203,0 1.10169,-1.746544 1.10169,-1.746544 -1.2427,-1.989887 c -0.68349,-1.094438 -1.24271,-2.4459934 -1.24271,-3.0034574 l 0,-1.013569 6,0 6,0 0,0.877556 c 0,0.482655 -0.675,1.4377564 -1.5,2.1224454 l -1.5,1.244889 0,1.722568 0,1.722568 1.82874,1.654987 1.82874,1.654988 1.51627,0 1.51627,0 1.65499,-1.828741 1.65499,-1.82874 0,-1.548815 0,-1.548815 -1.5,-1.244889 c -0.825,-0.684689 -1.5,-1.6397904 -1.5,-2.1224454 l 0,-0.877556 43.5,0 43.5,0 0,1.845013 0,1.8450134 1.82874,1.654987 1.82874,1.654988 1.51627,0 1.51627,0 1.65499,-1.828741 1.65499,-1.82874 0,-1.6712604 0,-1.67126 19.5,0 19.5,0 0,103.0000024 0,103 -21,0 -21,0 0,-5.87756 0,-5.87755 1.5,-1.24489 1.5,-1.24489 0,-1.72257 0,-1.72256 -1.82874,-1.65499 -1.82874,-1.65499 -1.51628,0 -1.51627,0 -1.65499,1.82874 -1.65498,1.82874 0,1.54882 0,1.54881 1.5,1.24489 1.5,1.24489 0,5.87755 0,5.87756 -45,0 -45,0 0,-0.87756 c 0,-0.48265 0.675,-1.43775 1.5,-2.12244 l 1.5,-1.24489 0,-1.72257 0,-1.72256 -1.82874,-1.65499 -1.82874,-1.65499 -1.51627,0 -1.51627,0 -1.65499,1.82874 -1.65499,1.82874 0,1.54882 0,1.54881 1.5,1.24489 c 0.825,0.68469 1.5,1.63979 1.5,2.12244 l 0,0.87756 -8,0 -8,0 0,-1.01357 c 0,-0.55746 0.55922,-1.90902 1.24271,-3.00345 l 1.2427,-1.98989 -1.10169,-1.74655 -1.10169,-1.74654 -2.28203,0 -2.28203,0 -1.10169,1.74654 -1.10169,1.74655 1.2427,1.98989 c 0.68349,1.09443 1.24271,2.44599 1.24271,3.00345 l 0,1.01357 -43,0 -42.999999,0 0,-26.8 0,-26.8 1.2,-1.2 1.2,-1.2 10.32307,0 10.32308,0 -0.27308,-17.75 -0.27307,-17.75 -2.5,0 -2.5,0 -0.30265,5.26118 -0.30264,5.26118 1.55264,0.59581 1.55265,0.59581 0,10.39301 0,10.39301 -8.34501,0 -8.34501,0 -1.80998,-2 -1.80998,-2 -1.69002,0 -1.69002,0 -1.80998,2 -1.80998,2 -13.84501,0 -13.84501,0 0,-3.84501 0,-3.84501 2,-1.80998 2,-1.80998 0,-1.69002 0,-1.69002 -1.82874,-1.65499 -1.82874,-1.65499 -1.51627,0 -1.51627,0 -1.65499,1.82874 -1.65499,1.82874 0,1.54882 0,1.54881 1.5,1.24489 1.5,1.24489 0,5.87755 0,5.87756 15.8,0 15.8,0 1.2,1.2 1.2,1.2 0,28.8 0,28.8 127.799999,0 127.8,0 1.2,-1.2 z m -146.35385,-7.88713 -0.67189,-1.08713 1.11287,-1.11287 1.11287,-1.11287 1.11287,1.11287 1.11287,1.11287 -0.67189,1.08713 c -0.36954,0.59792 -1.06877,1.08713 -1.55385,1.08713 -0.48508,0 -1.18431,-0.48921 -1.55385,-1.08713 z m -20,0 -0.67189,-1.08713 1.11287,-1.11287 1.11287,-1.11287 1.11287,1.11287 1.11287,1.11287 -0.67189,1.08713 c -0.36954,0.59792 -1.06877,1.08713 -1.55385,1.08713 -0.48508,0 -1.18431,-0.48921 -1.55385,-1.08713 z m 114,-10 -0.67188,-1.08713 1.11286,-1.11287 1.11287,-1.11287 1.11287,1.11287 1.11287,1.11287 -0.67189,1.08713 c -0.36954,0.59792 -1.06877,1.08713 -1.55385,1.08713 -0.48508,0 -1.18431,-0.48921 -1.55385,-1.08713 z m 48,-6 -0.67188,-1.08713 1.11286,-1.11287 1.11287,-1.11287 1.11287,1.11287 1.11287,1.11287 -0.67189,1.08713 c -0.36954,0.59792 -1.06877,1.08713 -1.55385,1.08713 -0.48508,0 -1.18431,-0.48921 -1.55385,-1.08713 z m 0,-20 -0.67188,-1.08713 1.11286,-1.11287 1.11287,-1.11287 1.11287,1.11287 1.11287,1.11287 -0.67189,1.08713 c -0.36954,0.59792 -1.06877,1.08713 -1.55385,1.08713 -0.48508,0 -1.18431,-0.48921 -1.55385,-1.08713 z m -251.999999,-16 -0.67189,-1.08713 1.11287,-1.11287 1.11287,-1.11287 1.11287,1.11287 1.11287,1.11287 -0.67189,1.08713 c -0.36954,0.59792 -1.06877,1.08713 -1.553851,1.08713 -0.485079,0 -1.184309,-0.48921 -1.55385,-1.08713 z m 251.999999,-8 -0.67188,-1.08713 1.11286,-1.11287 1.11287,-1.11287 1.11287,1.11287 1.11287,1.11287 -0.67189,1.08713 c -0.36954,0.59792 -1.06877,1.08713 -1.55385,1.08713 -0.48508,0 -1.18431,-0.48921 -1.55385,-1.08713 z m -285.999999,-6 -0.67189,-1.08713 1.11287,-1.11287 1.11287,-1.11287 1.11287,1.11287 1.11287,1.11287 -0.67189,1.08713 c -0.36954,0.59792 -1.06877,1.08713 -1.553851,1.08713 -0.485079,0 -1.184309,-0.48921 -1.55385,-1.08713 z m 56,-14 -0.67189,-1.08713 1.11287,-1.11287 1.11287,-1.11287 1.11287,1.11287 1.11287,1.11287 -0.67189,1.08713 c -0.36954,0.59792 -1.06877,1.08713 -1.55385,1.08713 -0.48508,0 -1.18431,-0.48921 -1.55385,-1.08713 z m 0,-30.000003 -0.67189,-1.08713 1.11287,-1.112874 1.11287,-1.11286 1.11287,1.11286 1.11287,1.112874 -0.67189,1.08713 c -0.36954,0.59792 -1.06877,1.087133 -1.55385,1.087133 -0.48508,0 -1.18431,-0.489213 -1.55385,-1.087133 z m 229.999999,-18.000004 -0.67188,-1.087129 1.11286,-1.112867 1.11287,-1.112868 1.11287,1.112868 1.11287,1.112867 -0.67189,1.087129 c -0.36954,0.59793 -1.06877,1.08714 -1.55385,1.08714 -0.48508,0 -1.18431,-0.48921 -1.55385,-1.08714 z m -285.999999,0 -0.67189,-1.087129 1.11287,-1.112867 1.11287,-1.112868 1.11287,1.112868 1.11287,1.112867 -0.67189,1.087129 c -0.36954,0.59793 -1.06877,1.08714 -1.553851,1.08714 -0.485079,0 -1.184309,-0.48921 -1.55385,-1.08714 z m 34,-13.999996 -0.67189,-1.087133 1.11287,-1.112867 1.11287,-1.112868 1.11287,1.112868 1.11287,1.112867 -0.67189,1.087133 c -0.36954,0.597922 -1.06877,1.087132 -1.553851,1.087132 -0.485079,0 -1.184309,-0.48921 -1.55385,-1.087132 z m 109.999999,-52 -0.67189,-1.087133 1.11287,-1.112867 1.11287,-1.112868 1.11287,1.112868 1.11287,1.112867 -0.67189,1.087133 c -0.36954,0.597922 -1.06877,1.087132 -1.55385,1.087132 -0.48508,0 -1.18431,-0.48921 -1.55385,-1.087132 z m -16,0 -0.67189,-1.087133 1.11287,-1.112867 1.11287,-1.112868 1.11287,1.112868 1.11287,1.112867 -0.67189,1.087133 c -0.36954,0.597922 -1.06877,1.087132 -1.55385,1.087132 -0.48508,0 -1.18431,-0.48921 -1.55385,-1.087132 z m 110,-4 -0.67188,-1.0871334 1.11286,-1.112868 1.11287,-1.112868 1.11287,1.112868 1.11287,1.112868 -0.67189,1.0871334 c -0.36954,0.597922 -1.06877,1.087132 -1.55385,1.087132 -0.48508,0 -1.18431,-0.48921 -1.55385,-1.087132 z M 54.782081,209.29333 l 1.65499,-1.82874 0,-1.54882 0,-1.54881 -1.5,-1.24489 -1.5,-1.24489 0,-5.87755 0,-5.87756 -7.87756,0 -7.87755,0 -1.24489,-1.5 -1.24489,-1.5 -1.72257,0 -1.72256,0 -1.65499,1.82874 -1.65499,1.82874 0,1.51627 0,1.51627 1.82874,1.65499 1.82874,1.65499 1.54882,0 1.54881,0 1.24489,-1.5 1.24489,-1.5 5.87755,0 5.87756,0 0,3.87756 0,3.87755 -1.5,1.24489 -1.5,1.24489 0,1.72257 0,1.72256 1.82874,1.65499 1.82874,1.65499 1.51627,0 1.51627,0 1.65499,-1.82874 z m -4.89886,-2.25839 -0.67189,-1.08713 1.11287,-1.11287 1.11287,-1.11287 1.11287,1.11287 1.11287,1.11287 -0.67189,1.08713 c -0.36954,0.59792 -1.06877,1.08713 -1.553851,1.08713 -0.485079,0 -1.184309,-0.48921 -1.55385,-1.08713 z m -18,-14 -0.67189,-1.08713 1.11287,-1.11287 1.11287,-1.11287 1.11287,1.11287 1.11287,1.11287 -0.67189,1.08713 c -0.36954,0.59792 -1.06877,1.08713 -1.553851,1.08713 -0.485079,0 -1.184309,-0.48921 -1.55385,-1.08713 z m 2.89886,16.25839 1.65499,-1.82874 0,-1.51627 0,-1.51627 -1.82874,-1.65499 -1.82874,-1.65499 -1.54882,0 -1.54881,0 -1.24489,1.5 -1.24489,1.5 -2.75511,0 -2.75511,0 -1.24489,-1.5 -1.24489,-1.5 -1.72257,0 -1.72256,0 -1.65499,1.82874 -1.65499,1.82874 0,1.51627 0,1.51627 1.82874,1.65499 1.82874,1.65499 1.54882,0 1.54881,0 1.24489,-1.5 1.24489,-1.5 2.75511,0 2.75511,0 1.24489,1.5 1.24489,1.5 1.72257,0 1.72256,0 1.65499,-1.82874 z m -4.89886,-2.25839 -0.67189,-1.08713 1.11287,-1.11287 1.11287,-1.11287 1.11287,1.11287 1.11287,1.11287 -0.67189,1.08713 c -0.36954,0.59792 -1.06877,1.08713 -1.553851,1.08713 -0.485079,0 -1.184309,-0.48921 -1.55385,-1.08713 z m -14,0 -0.67189,-1.08713 1.11287,-1.11287 1.11287,-1.11287 1.11287,1.11287 1.11287,1.11287 -0.67189,1.08713 c -0.36954,0.59792 -1.06877,1.08713 -1.553851,1.08713 -0.485079,0 -1.184309,-0.48921 -1.55385,-1.08713 z m 120.353849,1.88713 c 0.66,-0.66 1.2,-1.9549 1.2,-2.87756 l 0,-1.67755 -1.49467,-1.24047 -1.49468,-1.24047 -1.94851,0.50955 -1.94851,0.50954 -1.7118,-1.89152 -1.71181,-1.89152 -1.69002,0 -1.69002,0 -1.65499,1.82874 -1.65499,1.82874 0,1.51627 0,1.51627 1.93284,1.7492 1.93284,1.74919 2.97196,-0.65275 2.97196,-0.65275 0.65422,1.05854 0.65421,1.05855 1.74099,0 1.74098,0 1.2,-1.2 z m -4.35385,-1.88713 -0.67189,-1.08713 1.11287,-1.11287 1.11287,-1.11287 1.11287,1.11287 1.11287,1.11287 -0.67189,1.08713 c -0.36954,0.59792 -1.06877,1.08713 -1.55385,1.08713 -0.48508,0 -1.18431,-0.48921 -1.55385,-1.08713 z m -8,-2 -0.67189,-1.08713 1.11287,-1.11287 1.11287,-1.11287 1.11287,1.11287 1.11287,1.11287 -0.67189,1.08713 c -0.36954,0.59792 -1.06877,1.08713 -1.55385,1.08713 -0.48508,0 -1.18431,-0.48921 -1.55385,-1.08713 z m 184.33479,1.08713 -0.0853,-3 -0.68953,0 c -0.37925,0 -1.22883,-1.8 -1.88797,-4 l -1.19843,-4 -0.87832,0 -0.87833,0 -2.18432,6.56388 -2.18432,6.56388 0.53626,0.53625 0.53625,0.53626 1.06654,-0.65915 c 0.58659,-0.36254 1.06653,-1.3076 1.06653,-2.10014 l 0,-1.44098 1.88337,0 1.88337,0 0.52301,2 0.52301,2 1.02674,0 1.02673,0 -0.0853,-3 z m -11.78094,1 0,-2 -1,0 c -0.55,0 -1,0.45 -1,1 l 0,1 -2,0 -2,0 0,-5 0,-5 2,0 2,0 0,1 c 0,0.55 0.45,1 1,1 l 1,0 0,-2 0,-2 -4,0 -4,0 0,7 0,7 4,0 4,0 0,-2 z m -13.5172,0.83316 c 2.30231,-6.3435 3.5172,-10.30157 3.5172,-11.45889 l 0,-1.37427 -0.95986,0 -0.95986,0 -1.19843,4 c -0.65913,2.2 -1.50597,4 -1.88185,4 -0.37588,0 -1.22272,-1.8 -1.88185,-4 l -1.19843,-4 -0.95986,0 -0.95986,0 0.0775,1.75 c 0.0426,0.9625 0.85973,3.97237 1.81578,6.68859 l 1.73827,4.93859 1.1837,0.39457 1.18369,0.39457 0.48386,-1.33316 z m -194.134019,-0.66607 1.65876,-1.83291 -0.61074,-4.45586 -0.61075,-4.45587 1.60698,-1.33367 1.60697,-1.33367 0,-1.72257 0,-1.72256 -1.82874,-1.65499 -1.82874,-1.65499 -1.51627,0 -1.51627,0 -1.65499,1.82874 -1.65499,1.82874 0,1.54882 0,1.54881 1.5,1.24489 c 0.825,0.68469 1.5,1.68753 1.5,2.22852 0,0.541 -1.125,1.86856 -2.5,2.95014 l -2.5,1.9665 0,1.77243 0,1.77243 1.82874,1.65499 1.82874,1.65499 1.51627,0 1.51627,0 1.65876,-1.83291 z m -4.90263,-2.25422 -0.67189,-1.08713 1.11287,-1.11287 1.11287,-1.11287 1.11287,1.11287 1.11287,1.11287 -0.67189,1.08713 c -0.36954,0.59792 -1.06877,1.08713 -1.55385,1.08713 -0.48508,0 -1.18431,-0.48921 -1.55385,-1.08713 z m 2,-12 -0.67189,-1.08713 1.11287,-1.11287 1.11287,-1.11287 1.11287,1.11287 1.11287,1.11287 -0.67189,1.08713 c -0.36954,0.59792 -1.06877,1.08713 -1.55385,1.08713 -0.48508,0 -1.18431,-0.48921 -1.55385,-1.08713 z m 166.898859,8.25839 1.65499,-1.82874 0,-1.51627 0,-1.51627 -1.82874,-1.65499 c -1.00581,-0.91025 -2.49081,-1.65499 -3.3,-1.65499 -0.80919,0 -1.95821,0.48695 -2.55336,1.0821 l -1.0821,1.0821 -2.12136,-1.3248 -2.12135,-1.32481 -1.67971,1.05954 c -0.92385,0.58274 -2.15749,1.81696 -2.74143,2.7427 l -1.06172,1.68317 1.06172,1.68317 c 0.58394,0.92574 1.81758,2.15996 2.74143,2.7427 l 1.67971,1.05954 2.12135,-1.32481 2.12136,-1.3248 1.0821,1.0821 c 0.59515,0.59515 1.82236,1.0821 2.72711,1.0821 l 1.64502,0 1.65498,-1.82874 z m -4.89886,-2.25839 -0.67188,-1.08713 1.11286,-1.11287 1.11287,-1.11287 1.11287,1.11287 1.11287,1.11287 -0.67189,1.08713 c -0.36954,0.59792 -1.06877,1.08713 -1.55385,1.08713 -0.48508,0 -1.18431,-0.48921 -1.55385,-1.08713 z m -8,0 -0.67188,-1.08713 1.11286,-1.11287 1.11287,-1.11287 1.11287,1.11287 1.11287,1.11287 -0.67189,1.08713 c -0.36954,0.59792 -1.06877,1.08713 -1.55385,1.08713 -0.48508,0 -1.18431,-0.48921 -1.55385,-1.08713 z m -9.10114,2.25839 1.65499,-1.82874 0,-1.51627 0,-1.51627 -1.82874,-1.65499 c -1.00581,-0.91025 -2.49081,-1.65499 -3.3,-1.65499 -0.80919,0 -1.95821,0.48695 -2.55336,1.0821 l -1.08211,1.0821 -2.12135,-1.3248 -2.12135,-1.32481 -1.67972,1.05954 c -0.92384,0.58274 -2.15748,1.81696 -2.74142,2.7427 l -1.06172,1.68317 1.06172,1.68317 c 0.58394,0.92574 1.81758,2.15996 2.74142,2.7427 l 1.67972,1.05954 2.12135,-1.32481 2.12135,-1.3248 1.08211,1.0821 c 0.59515,0.59515 1.82236,1.0821 2.72711,1.0821 l 1.64502,0 1.65498,-1.82874 z m -4.89886,-2.25839 -0.67188,-1.08713 1.11286,-1.11287 1.11287,-1.11287 1.11287,1.11287 1.11287,1.11287 -0.67189,1.08713 c -0.36954,0.59792 -1.06877,1.08713 -1.55385,1.08713 -0.48508,0 -1.18431,-0.48921 -1.55385,-1.08713 z m -8,0 -0.67189,-1.08713 1.11287,-1.11287 1.11287,-1.11287 1.11287,1.11287 1.11287,1.11287 -0.67189,1.08713 c -0.36954,0.59792 -1.06877,1.08713 -1.55385,1.08713 -0.48508,0 -1.18431,-0.48921 -1.55385,-1.08713 z m -9.10114,2.25839 1.65499,-1.82874 0,-1.51627 0,-1.51627 -1.82874,-1.65499 -1.82874,-1.65499 -1.54882,0 -1.54881,0 -1.24489,1.5 -1.24489,1.5 -5.89112,0 -5.89113,0 -1.98643,-1.24055 -1.98643,-1.24054 -1.98643,1.24054 -1.98643,1.24055 -17.02714,0 -17.02714,0 -1.98988,-1.24271 -1.98989,-1.2427 -1.74655,1.10169 -1.74654,1.10169 0,2.28203 0,2.28203 1.74654,1.10169 1.74655,1.10169 1.98989,-1.2427 1.98988,-1.24271 17.02714,0 17.02714,0 1.98643,1.24055 1.98643,1.24054 1.98643,-1.24054 1.98643,-1.24055 5.89113,0 5.89112,0 1.24489,1.5 1.24489,1.5 1.72257,0 1.72256,0 1.65499,-1.82874 z m -4.89886,-2.25839 -0.67189,-1.08713 1.11287,-1.11287 1.11287,-1.11287 1.11287,1.11287 1.11287,1.11287 -0.67189,1.08713 c -0.36954,0.59792 -1.06877,1.08713 -1.55385,1.08713 -0.48508,0 -1.18431,-0.48921 -1.55385,-1.08713 z m -20,0 -0.67189,-1.08713 1.11287,-1.11287 1.11287,-1.11287 1.11287,1.11287 1.11287,1.11287 -0.67189,1.08713 c -0.36954,0.59792 -1.06877,1.08713 -1.55385,1.08713 -0.48508,0 -1.18431,-0.48921 -1.55385,-1.08713 z m -42,0 -0.67189,-1.08713 1.11287,-1.11287 1.11287,-1.11287 1.11287,1.11287 1.11287,1.11287 -0.67189,1.08713 c -0.36954,0.59792 -1.06877,1.08713 -1.55385,1.08713 -0.48508,0 -1.18431,-0.48921 -1.55385,-1.08713 z m -23.10114,-3.74161 1.65499,-1.82874 0,-1.54882 0,-1.54881 -1.60869,-1.33509 -1.60869,-1.3351 0.35869,-32.53735 0.35869,-32.53735 -2.5,0 -2.5,0 0.35869,32.53735 0.35869,32.53735 -1.60869,1.3351 -1.60869,1.33509 0,1.72257 0,1.72256 1.82874,1.65499 1.82874,1.65499 1.51627,0 1.51627,0 1.65499,-1.82874 z m -4.89886,-2.25839 -0.67189,-1.08713 1.11287,-1.11287 1.11287,-1.11287 1.11287,1.11287 1.11287,1.11287 -0.67189,1.08713 c -0.36954,0.59792 -1.06877,1.08713 -1.55385,1.08713 -0.48508,0 -1.18431,-0.48921 -1.55385,-1.08713 z m 0,-64 -0.67189,-1.08713 1.11287,-1.11287 1.11287,-1.11287 1.11287,1.11287 1.11287,1.11287 -0.67189,1.08713 c -0.36954,0.59792 -1.06877,1.08713 -1.55385,1.08713 -0.48508,0 -1.18431,-0.48921 -1.55385,-1.08713 z m -9.10114,66.25839 1.65499,-1.82874 0,-1.54882 0,-1.54881 -1.5,-1.24489 -1.5,-1.24489 0.0318,-2.12755 0.0318,-2.12756 1.46819,-1.94113 c 0.80752,-1.06762 1.46821,-2.53012 1.46821,-3.25 0,-0.71988 -0.9,-2.20887 -2,-3.30887 l -2,-2 -7.777489,0 -7.7775,0 -2.2225,1.5567 -2.22251,1.55671 0,2.24329 0,2.2433 1.2,1.2 1.2,1.2 7.3,0 7.3,0 0,2.37756 0,2.37755 -1.5,1.24489 -1.5,1.24489 0,1.72257 0,1.72256 1.82874,1.65499 1.828739,1.65499 1.51627,0 1.51627,0 1.65499,-1.82874 z m -4.898859,-2.25839 -0.67189,-1.08713 1.112869,-1.11287 1.11287,-1.11287 1.11287,1.11287 1.11287,1.11287 -0.67189,1.08713 c -0.36954,0.59792 -1.06877,1.08713 -1.55385,1.08713 -0.48508,0 -1.18431,-0.48921 -1.553849,-1.08713 z m -4,-14 -0.67189,-1.08713 1.11287,-1.11287 1.11287,-1.11287 1.11287,1.11287 1.11287,1.11287 -0.67189,1.08713 c -0.36954,0.59792 -1.06877,1.08713 -1.55385,1.08713 -0.48508,0 -1.18431,-0.48921 -1.55385,-1.08713 z m -8,0 -0.67189,-1.08713 1.11287,-1.11287 1.11287,-1.11287 1.11287,1.11287 1.11287,1.11287 -0.67189,1.08713 c -0.36954,0.59792 -1.06877,1.08713 -1.55385,1.08713 -0.48508,0 -1.18431,-0.48921 -1.55385,-1.08713 z m -11.10114,16.25839 1.65499,-1.82874 0,-1.51627 0,-1.51627 -2,-1.80998 -2,-1.80998 0,-9.34501 0,-9.34501 15,0 14.999999,0 0,-3.34501 0,-3.34501 2,-1.80998 2,-1.80998 0,-1.69002 0,-1.69002 -1.82874,-1.65499 -1.82874,-1.65499 -1.51627,0 -1.51627,0 -1.809979,2 c -0.99549,1.1 -2.19023,2 -2.65499,2 l -0.84501,0 0,-10.3 0,-10.3 1.06049,-1.06049 1.06049,-1.06049 -0.31049,-4.88951 -0.31049,-4.88951 -2.5,0 -2.5,0 0.0385,5.25 c 0.0212,2.8875 0.13366,10.875 0.25,17.75 l 0.2115,12.5 2.8,0 2.8,0 1.199999,1.2 1.2,1.2 0,2.3 0,2.3 -14.999999,0 -15,0 0,11.37756 0,11.37755 -1.5,1.24489 -1.5,1.24489 0,1.72257 0,1.72256 1.82874,1.65499 1.82874,1.65499 1.51627,0 1.51627,0 1.65499,-1.82874 z m -4.89886,-2.25839 -0.67189,-1.08713 1.11287,-1.11287 1.11287,-1.11287 1.11287,1.11287 1.11287,1.11287 -0.67189,1.08713 c -0.36954,0.59792 -1.06877,1.08713 -1.55385,1.08713 -0.48508,0 -1.18431,-0.48921 -1.55385,-1.08713 z m 29.999999,-36 -0.67189,-1.08713 1.11287,-1.11287 1.11287,-1.11287 1.11287,1.11287 1.11287,1.11287 -0.67189,1.08713 c -0.36954,0.59792 -1.06877,1.08713 -1.55385,1.08713 -0.48508,0 -1.18431,-0.48921 -1.55385,-1.08713 z m -7.999999,-28 -0.67189,-1.08713 1.11287,-1.11287 1.11287,-1.11287 1.11287,1.11287 1.11287,1.11287 -0.67189,1.08713 c -0.36954,0.59792 -1.06877,1.08713 -1.55385,1.08713 -0.48508,0 -1.18431,-0.48921 -1.55385,-1.08713 z m 100.053849,60.08713 0.61803,-1 42.44099,0 42.44098,0 0,-31 0,-31 -10.87755,0 -10.87756,0 -1.24489,-1.5 -1.24489,-1.5 -1.75511,0 -1.75511,0 -1.24489,1.5 -1.24489,1.5 -5.26092,0 -5.26093,0 -0.5437,-2.07911 -0.54369,-2.07911 -2.32294,0.32911 -2.32293,0.32911 0,8.68349 0,8.6835 -1.25,1.2665 c -0.6875,0.69658 -1.25,2.00677 -1.25,2.91152 l 0,1.64501 1.82874,1.65499 1.82874,1.65499 1.51627,0 1.51628,0 1.65498,-1.82874 1.65499,-1.82874 0,-1.54882 0,-1.54881 -1.5,-1.24489 -1.5,-1.24489 0.0137,-2.62755 c 0.007,-1.44516 0.28499,-3.64006 0.61663,-4.87756 l 0.60298,-2.25 5.26092,0 5.26093,0 1.24489,1.5 1.24488,1.5 1.75512,0 1.75511,0 1.24489,-1.5 1.24488,-1.5 8.87756,0 8.87756,0 0,27 0,27 -40.01357,0 -40.01358,0 -1.98988,-1.24271 -1.98989,-1.2427 -1.74655,1.09989 -1.74654,1.09989 -0.33258,1.69085 -0.33257,1.69086 1.20502,1.45196 1.20502,1.45196 1.81854,0 1.81854,0 0.61803,-1 z m -4.05385,-2.08713 -0.67189,-1.08713 1.11287,-1.11287 1.11287,-1.11287 1.11287,1.11287 1.11287,1.11287 -0.67189,1.08713 c -0.36954,0.59792 -1.06877,1.08713 -1.55385,1.08713 -0.48508,0 -1.18431,-0.48921 -1.55385,-1.08713 z m 44,-42 -0.67188,-1.08713 1.11286,-1.11287 1.11287,-1.11287 1.11287,1.11287 1.11287,1.11287 -0.67189,1.08713 c -0.36954,0.59792 -1.06877,1.08713 -1.55385,1.08713 -0.48508,0 -1.18431,-0.48921 -1.55385,-1.08713 z m 18,-16 -0.67188,-1.08713 1.11286,-1.11287 1.11287,-1.11287 1.11287,1.11287 1.11287,1.11287 -0.67189,1.08713 c -0.36954,0.59792 -1.06877,1.08713 -1.55385,1.08713 -0.48508,0 -1.18431,-0.48921 -1.55385,-1.08713 z m -18,0 -0.67188,-1.08713 1.11286,-1.11287 1.11287,-1.11287 1.11287,1.11287 1.11287,1.11287 -0.67189,1.08713 c -0.36954,0.59792 -1.06877,1.08713 -1.55385,1.08713 -0.48508,0 -1.18431,-0.48921 -1.55385,-1.08713 z m -54.02989,56.06853 c 2.10497,-2.76022 5.12244,-5.94086 6.70548,-7.06809 l 2.87826,-2.0495 0,-1.80946 0,-1.80946 -1.45196,-1.20502 -1.45196,-1.20502 -1.77292,0.34143 -1.77293,0.34144 -1.02511,2.01688 c -0.56382,1.10929 -3.04419,4.5928 -5.51195,7.74114 l -4.48683,5.72426 -21.26317,0 -21.26317,0 0,-19.87756 0,-19.87755 1.5,-1.24489 1.5,-1.24489 0,-1.75511 0,-1.75511 -1.5,-1.24489 -1.5,-1.24489 0,-3.75511 0,-3.75511 1.5,-1.24489 1.5,-1.24489 0,-1.72257 0,-1.72256 -1.82874,-1.65499 -1.82874,-1.65499 -1.51627,0 -1.51627,0 -1.65499,1.82874 -1.65499,1.82874 0,1.54882 0,1.54881 1.5,1.24489 1.5,1.24489 0,3.75511 0,3.75511 -1.5,1.24489 -1.5,1.24489 0,1.75511 0,1.75511 1.5,1.24489 1.5,1.24489 0,21.87755 0,21.87756 25.29451,0 25.29452,0 3.82723,-5.0186 z m 4.02989,-10.06853 -0.67189,-1.08713 1.11287,-1.11287 1.11287,-1.11287 1.11287,1.11287 1.11287,1.11287 -0.67189,1.08713 c -0.36954,0.59792 -1.06877,1.08713 -1.55385,1.08713 -0.48508,0 -1.18431,-0.48921 -1.55385,-1.08713 z m -58,-32 -0.67189,-1.08713 1.11287,-1.11287 1.11287,-1.11287 1.11287,1.11287 1.11287,1.11287 -0.67189,1.08713 c -0.36954,0.59792 -1.06877,1.08713 -1.55385,1.08713 -0.48508,0 -1.18431,-0.48921 -1.55385,-1.08713 z m 0,-16 -0.67189,-1.08713 1.11287,-1.11287 1.11287,-1.11287 1.11287,1.11287 1.11287,1.11287 -0.67189,1.08713 c -0.36954,0.59792 -1.06877,1.08713 -1.55385,1.08713 -0.48508,0 -1.18431,-0.48921 -1.55385,-1.08713 z m 14.89886,54.25839 1.65499,-1.82874 0,-1.51627 0,-1.51627 -2,-1.80998 -2,-1.80998 0,-21.34501 0,-21.34501 8.37756,0 8.37755,0 1.24489,1.5 1.24489,1.5 1.75511,0 1.75511,0 1.24489,-1.5 1.24489,-1.5 4.26092,0 4.26093,0 0.5437,2.07911 0.5437,2.07911 2.32293,-0.32911 2.32293,-0.32911 0,-5.5 0,-5.5 -2.32293,-0.32911 -2.32293,-0.32911 -0.5437,2.07911 -0.5437,2.07911 -4.26093,0 -4.26092,0 -1.24489,-1.5 -1.24489,-1.5 -1.72257,0 -1.72256,0 -1.80998,2 -1.80998,2 -9.34501,0 -9.34501,0 0,23.37756 0,23.37755 -1.5,1.24489 -1.5,1.24489 0,1.72257 0,1.72256 1.82874,1.65499 1.82874,1.65499 1.51627,0 1.51627,0 1.65499,-1.82874 z m -4.89886,-2.25839 -0.67189,-1.08713 1.11287,-1.11287 1.11287,-1.11287 1.11287,1.11287 1.11287,1.11287 -0.67189,1.08713 c -0.36954,0.59792 -1.06877,1.08713 -1.55385,1.08713 -0.48508,0 -1.18431,-0.48921 -1.55385,-1.08713 z m 38,-50 -0.67189,-1.08713 1.11287,-1.11287 1.11287,-1.11287 1.11287,1.11287 1.11287,1.11287 -0.67189,1.08713 c -0.36954,0.59792 -1.06877,1.08713 -1.55385,1.08713 -0.48508,0 -1.18431,-0.48921 -1.55385,-1.08713 z m -16,0 -0.67189,-1.08713 1.11287,-1.11287 1.11287,-1.11287 1.11287,1.11287 1.11287,1.11287 -0.67189,1.08713 c -0.36954,0.59792 -1.06877,1.08713 -1.55385,1.08713 -0.48508,0 -1.18431,-0.48921 -1.55385,-1.08713 z m -105.101139,52.25839 1.65499,-1.82874 0,-1.51627 0,-1.51627 -1.82874,-1.65499 -1.82874,-1.65499 -1.51627,0 -1.51627,0 -1.80998,2 -1.80998,2 -17.84501,0 -17.8450101,0 0,-29.5 0,-29.5 1.6060801,0 1.60608,0 1.9665,2.5 1.9665,2.5 1.85484,0 1.85484,0 1.9665,-2.5 1.9665,-2.5 20.03917,0 20.03918,0 -0.1831,7.75 -0.18309,7.75 2.5,0 2.5,0 0.31049,-4.88951 0.31049,-4.88951 -1.06049,-1.06049 c -0.58327,-0.58327 -1.06049,-1.87049 -1.06049,-2.86049 l 0,-1.8 68.249999,0.001 68.25,0.001 0.28148,17.85032 0.28148,17.85031 -1.53148,1.27102 -1.53148,1.27101 0,1.72257 0,1.72256 1.82874,1.65499 1.82874,1.65499 1.51627,0 1.51627,0 1.65499,-1.82874 1.65499,-1.82874 0,-1.54882 0,-1.54881 -1.64649,-1.36647 -1.64649,-1.36646 0.62755,-15.20867 0.62756,-15.20866 -0.98107,-0.60633 -0.98106,-0.60633 0,-1.94099 0,-1.94098 41.5,0 41.5,0 0,0.87756 c 0,0.48265 -0.675,1.43775 -1.5,2.12244 l -1.5,1.24512 0,1.75511 0,1.75511 1.5,1.24489 1.5,1.24489 0,7.75511 0,7.75511 -1.5,1.24489 -1.5,1.24489 0,1.72257 0,1.72256 1.82874,1.65499 1.82874,1.65499 1.51627,0 1.51627,0 1.65499,-1.82874 1.65499,-1.82874 0,-1.51627 0,-1.51627 -2,-1.80998 -2,-1.80998 0,-6.69002 0,-6.69002 1.82874,-1.65499 1.82874,-1.65499 4.17126,0 4.17126,0 0,-31.499997 0,-31.500004 -5.84501,0 -5.84502,0 -1.80997,-2 -1.80998,-2 -1.69002,0 -1.69002,0 -1.65499,1.828741 -1.65499,1.82874 0,1.516272 0,1.516272 1.82874,1.654987 1.82874,1.654988 1.54882,0 1.54881,0 1.24489,-1.5 1.24489,-1.5 4.87755,0 4.87756,0 0,28.500004 0,28.499997 -2.32569,0 -2.32568,0 -2.17432,-2.31445 -2.17431,-2.31445 0,-1.68555 0,-1.68555 -136,0 -135.999999,0 0,-0.51357 c 0,-0.28246 0.55922,-1.40902 1.24271,-2.50345 l 1.2427,-1.98989 -1.05954,-1.67972 c -0.58274,-0.92384 -1.81696,-2.15748 -2.7427,-2.74142 l -1.68317,-1.06172 -1.68317,1.06172 c -0.92574,0.58394 -2.15996,1.81758 -2.7427,2.74142 l -1.059541,1.67972 1.242701,1.98989 c 0.68349,1.09443 1.242709,2.22099 1.242709,2.50345 0,0.28246 -1.35,0.51357 -3,0.51357 l -2.9999991,0 0,-33.499997 0,-33.500004 18.3775601,0 18.377549,0 1.24489,1.5 1.24489,1.5 1.722571,0 1.722559,0 1.65499,-1.828741 1.65499,-1.82874 0,-1.516272 0,-1.516272 -1.828739,-1.654987 -1.82874,-1.654988 -1.51627,0 -1.516271,0 -1.80998,2 -1.80998,2 -19.34501,0 -19.3450091,0 0,67.500001 0,67.5 19.8775601,0 19.877549,0 1.24489,1.5 1.24489,1.5 1.722571,0 1.722559,0 1.65499,-1.82874 z m -4.89886,-2.25839 -0.67189,-1.08713 1.11287,-1.11287 1.11287,-1.11287 1.11287,1.11287 1.11287,1.11287 -0.67189,1.08713 c -0.36954,0.59792 -1.06877,1.08713 -1.553851,1.08713 -0.485079,0 -1.184309,-0.48921 -1.55385,-1.08713 z m 155.999999,-20 -0.67189,-1.08713 1.11287,-1.11287 1.11287,-1.11287 1.11287,1.11287 1.11287,1.11287 -0.67189,1.08713 c -0.36954,0.59792 -1.06877,1.08713 -1.55385,1.08713 -0.48508,0 -1.18431,-0.48921 -1.55385,-1.08713 z m 86,-10 -0.67189,-1.08713 1.11287,-1.11287 1.11287,-1.11287 1.11287,1.11287 1.11286,1.11287 -0.67188,1.08713 c -0.36954,0.59792 -1.06877,1.08713 -1.55385,1.08713 -0.48508,0 -1.18431,-0.48921 -1.55385,-1.08713 z m -86,-20 -0.67189,-1.08713 1.11287,-1.11287 1.11287,-1.11287 1.11287,1.11287 1.11287,1.11287 -0.67189,1.08713 c -0.36954,0.59792 -1.06877,1.08713 -1.55385,1.08713 -0.48508,0 -1.18431,-0.48921 -1.55385,-1.08713 z m -139.999999,0 -0.67189,-1.08713 1.11287,-1.11287 1.11287,-1.11287 1.11287,1.11287 1.11287,1.11287 -0.67189,1.08713 c -0.36954,0.59792 -1.06877,1.08713 -1.553851,1.08713 -0.485079,0 -1.184309,-0.48921 -1.55385,-1.08713 z m 225.999999,-4 -0.67189,-1.08713 1.11287,-1.11287 1.11287,-1.11287 1.11287,1.11287 1.11286,1.11287 -0.67188,1.08713 c -0.36954,0.59792 -1.06877,1.08713 -1.55385,1.08713 -0.48508,0 -1.18431,-0.48921 -1.55385,-1.08713 z m -273.999999,-6 -0.67189,-1.08713 1.11287,-1.11287 1.11287,-1.11287 1.11287,1.11287 1.11287,1.11287 -0.67189,1.08713 c -0.36954,0.59792 -1.06877,1.08713 -1.553851,1.08713 -0.485079,0 -1.184309,-0.48921 -1.55385,-1.08713 z m 0,-8 -0.67189,-1.08713 1.11287,-1.11287 1.11287,-1.11287 1.11287,1.11287 1.11287,1.11287 -0.67189,1.08713 c -0.36954,0.59792 -1.06877,1.08713 -1.553851,1.08713 -0.485079,0 -1.184309,-0.48921 -1.55385,-1.08713 z m 269.999999,-46.000003 -0.67188,-1.087133 1.11286,-1.112867 1.11287,-1.112868 1.11287,1.112868 1.11286,1.112867 -0.67188,1.087133 c -0.36954,0.597922 -1.06877,1.087132 -1.55385,1.087132 -0.48508,0 -1.18431,-0.48921 -1.55385,-1.087132 z m -237.999999,-18 -0.67189,-1.087133 1.11287,-1.112867 1.11287,-1.112868 1.11287,1.112868 1.11287,1.112867 -0.67189,1.087133 c -0.36954,0.597922 -1.06877,1.087132 -1.553851,1.087132 -0.485079,0 -1.184309,-0.48921 -1.55385,-1.087132 z m 221.553849,124.209573 0,-8.87755 1.5,-1.24489 1.5,-1.24489 0,-1.75511 0,-1.75511 -1.5,-1.24489 -1.5,-1.24489 0,-1.75511 0,-1.75511 1.5,-1.24489 1.5,-1.24489 0,-1.72257 0,-1.72256 -1.82874,-1.65499 -1.82874,-1.65499 -1.51627,0 -1.51627,0 -1.65499,1.82874 -1.65499,1.82874 0,1.54882 0,1.54881 1.5,1.24489 1.5,1.24489 0,1.75511 0,1.75511 -1.5,1.24489 -1.5,1.24489 0,1.75511 0,1.75511 1.5,1.24489 1.5,1.24489 0,6.87755 0,6.87756 -24.12302,0 -24.12303,0 0.37302,-26.75 0.37303,-26.75 -2.5,0 -2.5,0 0.0385,5.25 c 0.0212,2.8875 0.13366,15.825 0.25,28.75 l 0.2115,23.5 28,0 28,0 0,-8.87756 z m -3.55385,-12.20957 -0.67188,-1.08713 1.11286,-1.11287 1.11287,-1.11287 1.11287,1.11287 1.11287,1.11287 -0.67189,1.08713 c -0.36954,0.59792 -1.06877,1.08713 -1.55385,1.08713 -0.48508,0 -1.18431,-0.48921 -1.55385,-1.08713 z m 0,-12 -0.67188,-1.08713 1.11286,-1.11287 1.11287,-1.11287 1.11287,1.11287 1.11287,1.11287 -0.67189,1.08713 c -0.36954,0.59792 -1.06877,1.08713 -1.55385,1.08713 -0.48508,0 -1.18431,-0.48921 -1.55385,-1.08713 z m -52,-18 -0.67189,-1.08713 1.11287,-1.11287 1.11287,-1.11287 1.11287,1.11287 1.11287,1.11287 -0.67189,1.08713 c -0.36954,0.59792 -1.06877,1.08713 -1.55385,1.08713 -0.48508,0 -1.18431,-0.48921 -1.55385,-1.08713 z m -44.15352,47.5871 2.79263,-3.49997 1.30238,0 c 0.71631,0 2.04713,-0.82293 2.95737,-1.82874 l 1.65499,-1.82874 0,-1.51627 0,-1.51627 -2,-1.80998 -2,-1.80998 0,-1.34501 0,-1.34501 11,0 11,0 0,-12.8 0,-12.8 1.06049,-1.06049 1.06049,-1.06049 -0.31049,-4.88951 -0.31049,-4.88951 -2.5,0 -2.5,0 0.3847,17.25 0.38469,17.25 -11.13469,0 -11.1347,0 0,3.37756 0,3.37755 -1.55007,1.28645 -1.55008,1.28644 0.26998,2.086 0.26998,2.086 -2.40796,3.25 -2.40797,3.25 -7.81194,0 -7.81194,0 0,-12.84501 0,-12.84501 2,-1.80998 2,-1.80998 0,-1.69002 0,-1.69002 -1.82874,-1.65499 -1.82874,-1.65499 -1.51627,0 -1.51627,0 -1.65499,1.82874 -1.65499,1.82874 0,1.54882 0,1.54881 1.5,1.24489 1.5,1.24489 0,14.87755 0,14.87756 10.75,-3e-5 10.75,-3e-5 2.79263,-3.49997 z m 2.15352,-7.5871 -0.67189,-1.08713 1.11287,-1.11287 1.11287,-1.11287 1.11287,1.11287 1.11287,1.11287 -0.67189,1.08713 c -0.36954,0.59792 -1.06877,1.08713 -1.55385,1.08713 -0.48508,0 -1.18431,-0.48921 -1.55385,-1.08713 z m -26,-22 -0.67189,-1.08713 1.11287,-1.11287 1.11287,-1.11287 1.11287,1.11287 1.11287,1.11287 -0.67189,1.08713 c -0.36954,0.59792 -1.06877,1.08713 -1.55385,1.08713 -0.48508,0 -1.18431,-0.48921 -1.55385,-1.08713 z m 48,-18 -0.67189,-1.08713 1.11287,-1.11287 1.11287,-1.11287 1.11287,1.11287 1.11287,1.11287 -0.67189,1.08713 c -0.36954,0.59792 -1.06877,1.08713 -1.55385,1.08713 -0.48508,0 -1.18431,-0.48921 -1.55385,-1.08713 z m 62.89886,42.25839 1.65499,-1.82874 0,-1.54882 0,-1.54881 -1.5,-1.24489 -1.5,-1.24489 0,-3.87755 0,-3.87756 -4.87755,0 -4.87756,0 -1.24489,-1.5 -1.24489,-1.5 -1.72257,0 -1.72256,0 -1.80998,2 -1.80997,2 -1.69003,0 -1.69002,0 -1.80998,-2 -1.80997,-2 -1.34502,0 -1.34501,0 0,-9.3 0,-9.3 1.06049,-1.06049 1.06049,-1.06049 -0.31049,-4.88951 -0.31049,-4.88951 -2.5,0 -2.5,0 0.17362,18.8055 0.17362,18.80551 1.19882,1.44449 1.19883,1.4445 1.75511,0 1.75511,0 1.24489,-1.5 1.24489,-1.5 2.75511,0 2.75511,0 1.24489,1.5 1.24489,1.5 1.75511,0 1.75511,0 1.24489,-1.5 1.24489,-1.5 2.87756,0 2.87755,0 0,1.87756 0,1.87755 -1.5,1.24489 -1.5,1.24489 0,1.72257 0,1.72256 1.82874,1.65499 1.82874,1.65499 1.51627,0 1.51628,0 1.65498,-1.82874 z m -4.89886,-2.25839 -0.67188,-1.08713 1.11286,-1.11287 1.11287,-1.11287 1.11287,1.11287 1.11287,1.11287 -0.67189,1.08713 c -0.36954,0.59792 -1.06877,1.08713 -1.55385,1.08713 -0.48508,0 -1.18431,-0.48921 -1.55385,-1.08713 z m -12,-10 -0.67188,-1.08713 1.11286,-1.11287 1.11287,-1.11287 1.11287,1.11287 1.11287,1.11287 -0.67189,1.08713 c -0.36954,0.59792 -1.06877,1.08713 -1.55385,1.08713 -0.48508,0 -1.18431,-0.48921 -1.55385,-1.08713 z m -14,0 -0.67188,-1.08713 1.11286,-1.11287 1.11287,-1.11287 1.11287,1.11287 1.11287,1.11287 -0.67189,1.08713 c -0.36954,0.59792 -1.06877,1.08713 -1.55385,1.08713 -0.48508,0 -1.18431,-0.48921 -1.55385,-1.08713 z m -2,-30 -0.67189,-1.08713 1.11287,-1.11287 1.11287,-1.11287 1.11287,1.11287 1.11287,1.11287 -0.67189,1.08713 c -0.36954,0.59792 -1.06877,1.08713 -1.55385,1.08713 -0.48508,0 -1.18431,-0.48921 -1.55385,-1.08713 z m -61.10114,42.25839 1.65499,-1.82874 0,-1.54882 0,-1.54881 -1.5,-1.24489 -1.5,-1.24489 0,-8.87755 0,-8.87756 9.87756,0 9.87755,0 1.24489,1.5 1.24489,1.5 1.72257,0 1.72256,0 1.65499,-1.82874 c 0.91025,-1.00581 1.65499,-2.49081 1.65499,-3.3 0,-0.80919 -0.5625,-2.04119 -1.25,-2.73777 l -1.25,-1.2665 0,-8.6835 0,-8.68349 -2.5,0 -2.5,0 0,8.5 0,8.5 -0.80902,1.25 -0.80901,1.25 -11.94099,0 -11.94098,0 0,10.87756 0,10.87755 -1.5,1.24489 -1.5,1.24489 0,1.72257 0,1.72256 1.82874,1.65499 1.82874,1.65499 1.51627,0 1.51627,0 1.65499,-1.82874 z m -4.89886,-2.25839 -0.67189,-1.08713 1.11287,-1.11287 1.11287,-1.11287 1.11287,1.11287 1.11287,1.11287 -0.67189,1.08713 c -0.36954,0.59792 -1.06877,1.08713 -1.55385,1.08713 -0.48508,0 -1.18431,-0.48921 -1.55385,-1.08713 z m 26,-24 -0.67189,-1.08713 1.11287,-1.11287 1.11287,-1.11287 1.11287,1.11287 1.11287,1.11287 -0.67189,1.08713 c -0.36954,0.59792 -1.06877,1.08713 -1.55385,1.08713 -0.48508,0 -1.18431,-0.48921 -1.55385,-1.08713 z m 0,-16 -0.67189,-1.08713 1.11287,-1.11287 1.11287,-1.11287 1.11287,1.11287 1.11287,1.11287 -0.67189,1.08713 c -0.36954,0.59792 -1.06877,1.08713 -1.55385,1.08713 -0.48508,0 -1.18431,-0.48921 -1.55385,-1.08713 z M 20.782081,169.29333 c 0.91025,-1.00581 1.65499,-2.49081 1.65499,-3.3 0,-0.80919 -0.54,-2.01126 -1.2,-2.67126 l -1.2,-1.2 1.2,-1.2 c 0.66,-0.66 1.2,-1.94026 1.2,-2.84501 l 0,-1.64501 -2,-1.80998 -2,-1.80998 0,-9.31827 0,-9.31828 14.75,-0.27674 14.75,-0.27673 0,-5.5 0,-5.5 -2.5,0 -2.5,0 -0.3075,4.25 -0.3075,4.25 -13.4425,0 -13.4425,0 0,11.37756 0,11.37755 -1.5,1.24489 -1.5,1.24489 0,1.67755 c 0,0.92266 0.54,2.21756 1.2,2.87756 l 1.2,1.2 -1.2,1.2 c -0.66,0.66 -1.2,1.94026 -1.2,2.84501 l 0,1.64501 1.82874,1.65499 1.82874,1.65499 1.51627,0 1.51627,0 1.65499,-1.82874 z m -4.89886,-2.25839 -0.67189,-1.08713 1.11287,-1.11287 1.11287,-1.11287 1.11287,1.11287 1.11287,1.11287 -0.67189,1.08713 c -0.36954,0.59792 -1.06877,1.08713 -1.553851,1.08713 -0.485079,0 -1.184309,-0.48921 -1.55385,-1.08713 z m 0,-8 -0.67189,-1.08713 1.11287,-1.11287 1.11287,-1.11287 1.11287,1.11287 1.11287,1.11287 -0.67189,1.08713 c -0.36954,0.59792 -1.06877,1.08713 -1.553851,1.08713 -0.485079,0 -1.184309,-0.48921 -1.55385,-1.08713 z m 28,-30 -0.67189,-1.08713 1.11287,-1.11287 1.11287,-1.11287 1.11287,1.11287 1.11287,1.11287 -0.67189,1.08713 c -0.36954,0.59792 -1.06877,1.08713 -1.553851,1.08713 -0.485079,0 -1.184309,-0.48921 -1.55385,-1.08713 z m 36.89886,16.25839 1.65499,-1.82874 0,-1.51627 0,-1.51627 -1.82874,-1.65499 c -1.00581,-0.91025 -2.35581,-1.65499 -3,-1.65499 l -1.17126,0 0,-1.3 c 0,-0.715 0.47722,-1.77722 1.06049,-2.36049 l 1.06049,-1.06049 -0.31049,-4.88951 -0.31049,-4.88951 -2.5,0 -2.5,0 0.22037,8.23997 0.22037,8.23997 -1.97037,-1.23052 -1.97037,-1.23051 -1.98643,1.24054 -1.98643,1.24055 -4.51357,0 -4.51357,0 0,-2.3 0,-2.3 1.06049,-1.06049 1.06049,-1.06049 -0.31049,-4.88051 -0.31049,-4.88052 -1.85622,-0.35278 -1.85622,-0.35277 -1.00682,1.00682 -1.00683,1.00683 0.71921,9.08695 0.7192,9.08696 4.99992,0 4.99992,0 1.9665,2.5 1.9665,2.5 1.72742,0 1.72742,0 1.2,-1.2 1.199999,-1.2 1.2,1.2 c 0.66,0.66 1.94026,1.2 2.84501,1.2 l 1.64501,0 1.65499,-1.82874 z m -4.89886,-2.25839 -0.67189,-1.08713 1.11287,-1.11287 1.11287,-1.11287 1.11287,1.11287 1.11287,1.11287 -0.67189,1.08713 c -0.36954,0.59792 -1.06877,1.08713 -1.55385,1.08713 -0.48508,0 -1.18431,-0.48921 -1.55385,-1.08713 z m -8,0 -0.67189,-1.08713 1.11287,-1.11287 1.11287,-1.11287 1.11287,1.11287 1.11287,1.11287 -0.67189,1.08713 c -0.36954,0.59792 -1.06877,1.08713 -1.55385,1.08713 -0.48508,0 -1.18431,-0.48921 -1.55385,-1.08713 z m 6,-14 -0.67189,-1.08713 1.11287,-1.11287 1.11287,-1.11287 1.11287,1.11287 1.11287,1.11287 -0.67189,1.08713 c -0.36954,0.59792 -1.06877,1.08713 -1.55385,1.08713 -0.48508,0 -1.18431,-0.48921 -1.55385,-1.08713 z m -20,0 -0.67189,-1.08713 1.11287,-1.11287 1.11287,-1.11287 1.11287,1.11287 1.11287,1.11287 -0.67189,1.08713 c -0.36954,0.59792 -1.06877,1.08713 -1.553851,1.08713 -0.485079,0 -1.184309,-0.48921 -1.55385,-1.08713 z m 54.121409,3.77167 c 0.30724,-0.80065 0.41773,-3.41971 0.24553,-5.82014 l -0.31309,-4.3644 -2.5,0 -2.5,0 0,5.5 0,5.5 2.25447,0.32014 2.25447,0.32013 0.55862,-1.45573 z m -4.12141,-3.77167 -0.67189,-1.08713 1.11287,-1.11287 1.11287,-1.11287 1.11287,1.11287 1.11287,1.11287 -0.67189,1.08713 c -0.36954,0.59792 -1.06877,1.08713 -1.55385,1.08713 -0.48508,0 -1.18431,-0.48921 -1.55385,-1.08713 z m 188.55385,-19.25788 0,-2.34501 2,-1.80998 2,-1.80998 0,-1.69002 0,-1.69002 -2,-1.809973 -2,-1.809984 0,-5.69002 0,-5.69003 2,-1.80997 2,-1.80998 0,-1.690024 0,-1.690025 -1.82874,-1.654987 -1.82874,-1.654988 -1.51627,0 -1.51628,0 -1.65498,1.828741 -1.65499,1.82874 0,1.548815 0,1.548818 1.5,1.24489 1.5,1.24488 0,6.75512 0,6.755114 -1.5,1.24489 -1.5,1.244883 0,1.75511 0,1.75511 1.5,1.24489 1.5,1.24489 0,1.37755 0,1.37756 -8.90638,0 -8.90638,0 0.5244,-2.00533 0.52441,-2.00532 -1.17544,-1.41632 -1.17543,-1.41631 1.30011,-2.08182 1.30012,-2.081813 -1.05954,-1.679714 c -0.58274,-0.92384 -1.81696,-2.15749 -2.7427,-2.74143 l -1.68317,-1.06171 -1.68317,1.06171 c -0.92574,0.58394 -2.15996,1.81759 -2.7427,2.74143 l -1.05954,1.679714 1.30012,2.081813 1.30011,2.08182 -1.17543,1.41631 -1.17544,1.41632 0.52441,2.00532 0.5244,2.00533 -28.40638,0 -28.40638,0 0,-2.3 0,-2.3 1.06049,-1.06049 1.06049,-1.06049 -0.31049,-4.889503 -0.31049,-4.889514 -2.5,0 -2.5,0 0.221,8.249997 0.221,8.25 -25.87738,0 -25.87738,0 0.5244,-2.00533 0.52441,-2.00532 -1.17544,-1.41632 -1.17543,-1.41631 1.30011,-2.08182 1.30012,-2.081813 -1.05954,-1.679714 c -0.58274,-0.92384 -1.81696,-2.15749 -2.7427,-2.74143 l -1.68317,-1.06171 -1.68317,1.06171 c -0.92574,0.58394 -2.15996,1.81759 -2.7427,2.74143 l -1.05954,1.679714 1.30012,2.081813 1.30011,2.08182 -1.17543,1.41631 -1.17544,1.41632 0.52441,2.00532 0.5244,2.00533 -5.76771,0 -5.76771,0 0.44174,-2.31082 0.44175,-2.31082 -1.58042,-1.31162 -1.58041,-1.31163 0,-8.755107 0,-8.75512 1.5,-1.24488 1.5,-1.24489 0,-1.755114 0,-1.755111 -1.5,-1.244889 -1.5,-1.244889 0,-19.877556 0,-19.877555 27,0 27,0 0,7 0,7 4.01357,0 4.01357,0 1.98988,1.242705 1.98989,1.242705 1.74655,-1.101691 1.74654,-1.101692 0,-2.282027 0,-2.282027 -1.74654,-1.101692 -1.74655,-1.101691 -1.98989,1.242705 c -1.09443,0.683488 -2.89599,1.242705 -4.00345,1.242705 l -2.01357,0 0,-7 0,-7 -31,0 -31,0 0,21.877555 0,21.877556 -1.5,1.244889 -1.5,1.244889 0,1.755111 0,1.755114 1.5,1.24489 1.5,1.24488 0,8.75512 0,8.755107 -1.58041,1.31163 -1.58042,1.31162 0.44175,2.31082 0.44174,2.31082 -28.361329,0 -28.36133,0 0,-2.3 0,-2.3 1.06049,-1.06049 1.06049,-1.06049 -0.31049,-4.880513 -0.31049,-4.880524 -1.85622,-0.35277 -1.85622,-0.35277 -1.00682,1.00682 -1.00683,1.00682 0.71921,9.086957 0.7192,9.08696 114.393839,0 114.39384,0 0,-2.34501 z m -26.55385,-2.74212 -0.67188,-1.08713 1.11286,-1.11287 1.11287,-1.11287 1.11287,1.11287 1.11287,1.11287 -0.67189,1.08713 c -0.36954,0.59792 -1.06877,1.08713 -1.55385,1.08713 -0.48508,0 -1.18431,-0.48921 -1.55385,-1.08713 z m -120,0 -0.67189,-1.08713 1.11287,-1.11287 1.11287,-1.11287 1.11287,1.11287 1.11287,1.11287 -0.67189,1.08713 c -0.36954,0.59792 -1.06877,1.08713 -1.55385,1.08713 -0.48508,0 -1.18431,-0.48921 -1.55385,-1.08713 z m -20,0 -0.67189,-1.08713 1.11287,-1.11287 1.11287,-1.11287 1.11287,1.11287 1.11287,1.11287 -0.67189,1.08713 c -0.36954,0.59792 -1.06877,1.08713 -1.55385,1.08713 -0.48508,0 -1.18431,-0.48921 -1.55385,-1.08713 z m 164,-4 -0.67189,-1.08713 1.11287,-1.11287 1.11287,-1.112873 1.11287,1.112873 1.11286,1.11287 -0.67188,1.08713 c -0.36954,0.59792 -1.06877,1.08713 -1.55385,1.08713 -0.48508,0 -1.18431,-0.48921 -1.55385,-1.08713 z m -24,-4.000003 -0.67188,-1.08713 1.11286,-1.112874 1.11287,-1.11286 1.11287,1.11286 1.11287,1.112874 -0.67189,1.08713 c -0.36954,0.59792 -1.06877,1.087133 -1.55385,1.087133 -0.48508,0 -1.18431,-0.489213 -1.55385,-1.087133 z m -62,0 -0.67189,-1.08713 1.11287,-1.112874 1.11287,-1.11286 1.11287,1.11286 1.11287,1.112874 -0.67189,1.08713 c -0.36954,0.59792 -1.06877,1.087133 -1.55385,1.087133 -0.48508,0 -1.18431,-0.489213 -1.55385,-1.087133 z m -58,0 -0.67189,-1.08713 1.11287,-1.112874 1.11287,-1.11286 1.11287,1.11286 1.11287,1.112874 -0.67189,1.08713 c -0.36954,0.59792 -1.06877,1.087133 -1.55385,1.087133 -0.48508,0 -1.18431,-0.489213 -1.55385,-1.087133 z m -81.999999,0 -0.67189,-1.08713 1.11287,-1.112874 1.11287,-1.11286 1.11287,1.11286 1.11287,1.112874 -0.67189,1.08713 c -0.36954,0.59792 -1.06877,1.087133 -1.553851,1.087133 -0.485079,0 -1.184309,-0.489213 -1.55385,-1.087133 z m 225.999999,-18.000004 -0.67189,-1.087129 1.11287,-1.112867 1.11287,-1.112868 1.11287,1.112868 1.11286,1.112867 -0.67188,1.087129 c -0.36954,0.59793 -1.06877,1.08714 -1.55385,1.08714 -0.48508,0 -1.18431,-0.48921 -1.55385,-1.08714 z m -164,0 -0.67189,-1.087129 1.11287,-1.112867 1.11287,-1.112868 1.11287,1.112868 1.11287,1.112867 -0.67189,1.087129 c -0.36954,0.59793 -1.06877,1.08714 -1.55385,1.08714 -0.48508,0 -1.18431,-0.48921 -1.55385,-1.08714 z m 68,-31.999996 -0.67189,-1.087133 1.11287,-1.112867 1.11287,-1.112868 1.11287,1.112868 1.11287,1.112867 -0.67189,1.087133 c -0.36954,0.597922 -1.06877,1.087132 -1.55385,1.087132 -0.48508,0 -1.18431,-0.48921 -1.55385,-1.087132 z m -29.44615,54.587133 1.24489,-1.5 2.89112,0 2.89113,0 1.85396,1.15782 1.85397,1.15782 1.68511,-0.64664 1.68511,-0.64664 -0.30264,-5.261173 -0.30265,-5.261184 -2.5,0 -2.5,0 -0.31336,3.25 -0.31336,3.250004 -2.76232,0 -2.76233,0 -2.17432,-2.314464 -2.17431,-2.31445 0,-3.68555 0,-3.68554 -12,0 -12,0 0,-17.845016 0,-17.845013 2,-1.809975 2,-1.809975 0,-1.690025 0,-1.690025 -1.82874,-1.654987 -1.82874,-1.654988 -1.51627,0 -1.51627,0 -1.65499,1.828741 -1.65499,1.82874 0,1.548815 0,1.548815 1.5,1.244889 1.5,1.244889 0,19.877556 0,19.877559 12,0 12,0 0,2.87755 0,2.87756 -1.5,1.244894 -1.5,1.24488 0,1.722573 0,1.72256 1.82874,1.65499 1.82874,1.65499 1.54882,0 1.54881,0 1.24489,-1.5 z m -4.55385,-2.58713 -0.67189,-1.087133 1.11287,-1.11287 1.11287,-1.11286 1.11287,1.11286 1.11287,1.11287 -0.67189,1.087133 c -0.36954,0.59792 -1.06877,1.08713 -1.55385,1.08713 -0.48508,0 -1.18431,-0.48921 -1.55385,-1.08713 z m 14,-2.000003 -0.67189,-1.08713 1.11287,-1.112874 1.11287,-1.11286 1.11287,1.11286 1.11287,1.112874 -0.67189,1.08713 c -0.36954,0.59792 -1.06877,1.087133 -1.55385,1.087133 -0.48508,0 -1.18431,-0.489213 -1.55385,-1.087133 z m -38,-52 -0.67189,-1.087133 1.11287,-1.112867 1.11287,-1.112868 1.11287,1.112868 1.11287,1.112867 -0.67189,1.087133 c -0.36954,0.597922 -1.06877,1.087132 -1.55385,1.087132 -0.48508,0 -1.18431,-0.48921 -1.55385,-1.087132 z m 102.24341,55.166243 0.5437,-2.07911 5.26093,0 5.26092,0 1.24489,1.5 1.24489,1.5 1.72257,0 1.72257,0 1.65498,-1.82874 1.65499,-1.828743 0,-1.54881 0,-1.548824 -1.5,-1.24488 -1.5,-1.24489 0,-1.87756 0,-1.87755 12,0 12,0 0,-28.000004 0,-28 -37.01357,0 -37.01357,0 -1.98988,-1.242705 -1.98989,-1.242705 -1.74655,1.101691 -1.74654,1.101692 0,2.282027 0,2.282027 1.74654,1.101692 1.74655,1.101691 1.98989,-1.242705 1.98988,-1.242705 35.01357,0 35.01357,0 0,24 0,24.000004 -12,0 -12,0 0,3.8 0,3.8 -1.2,1.2 -1.2,1.2 -5.18337,0 -5.18337,0 -0.60297,-2.25 c -0.33164,-1.2375 -0.60912,-3.8824 -0.61663,-5.87756 l -0.0136,-3.62756 1.5,-1.24488 1.5,-1.24489 0,-1.722571 0,-1.722568 -1.82875,-1.654987 -1.82874,-1.654988 -1.51627,0 -1.51627,0 -1.65499,1.828741 -1.65498,1.82874 0,1.548815 0,1.548818 1.53839,1.27675 1.53839,1.27675 -0.28839,9.59569 -0.28839,9.595697 2.32293,0.32911 2.32293,0.32911 0.5437,-2.07911 z m 13.75659,-3.166243 -0.67188,-1.08713 1.11286,-1.112874 1.11287,-1.11286 1.11287,1.11286 1.11287,1.112874 -0.67189,1.08713 c -0.36954,0.59792 -1.06877,1.087133 -1.55385,1.087133 -0.48508,0 -1.18431,-0.489213 -1.55385,-1.087133 z m -18,0 -0.67188,-1.08713 1.11286,-1.112874 1.11287,-1.11286 1.11287,1.11286 1.11287,1.112874 -0.67189,1.08713 c -0.36954,0.59792 -1.06877,1.087133 -1.55385,1.087133 -0.48508,0 -1.18431,-0.489213 -1.55385,-1.087133 z m 0,-18.000004 -0.67188,-1.087129 1.11286,-1.112867 1.11287,-1.112868 1.11287,1.112868 1.11287,1.112867 -0.67189,1.087129 c -0.36954,0.59793 -1.06877,1.08714 -1.55385,1.08714 -0.48508,0 -1.18431,-0.48921 -1.55385,-1.08714 z m -34,-43.999996 -0.67189,-1.087133 1.11287,-1.112867 1.11287,-1.112868 1.11287,1.112868 1.11287,1.112867 -0.67189,1.087133 c -0.36954,0.597922 -1.06877,1.087132 -1.55385,1.087132 -0.48508,0 -1.18431,-0.48921 -1.55385,-1.087132 z m 27.845,66.462653 0.70885,-0.70885 0,-4.774313 0,-4.774324 -1,-0.61803 -1,-0.61804 0,-10.44098 0,-10.440984 1.37756,0 1.37755,0 1.24489,-1.5 1.24489,-1.5 2.75511,0 2.75511,0 1.24489,1.5 1.24489,1.5 1.75511,0 1.75511,0 1.24489,-1.5 1.24489,-1.5 4.87756,0 4.87755,0 0,-2.877555 0,-2.877556 1.5,-1.244889 1.5,-1.244889 0,-1.722568 0,-1.722568 -1.82874,-1.654987 -1.82874,-1.654988 -1.51627,0 -1.51627,0 -1.65499,1.828741 -1.65499,1.82874 0,1.548815 0,1.548815 1.5,1.244889 c 0.825,0.684689 1.5,1.639789 1.5,2.122445 l 0,0.877555 -2.87755,0 -2.87756,0 -1.24489,-1.5 -1.24489,-1.5 -1.75511,0 -1.75511,0 -1.24489,1.5 -1.24489,1.5 -2.75511,0 -2.75511,0 -1.24489,-1.5 -1.24489,-1.5 -1.75511,0 -1.75511,0 -1.19149,1.435654 -1.19149,1.435655 -0.18095,19.814345 -0.18096,19.814347 2.04115,0.29218 2.04115,0.29219 0.70885,-0.70885 z m -3.845,-4.462653 -0.67189,-1.08713 1.11287,-1.112874 1.11287,-1.11286 1.11287,1.11286 1.11287,1.112874 -0.67189,1.08713 c -0.36954,0.59792 -1.06877,1.087133 -1.55385,1.087133 -0.48508,0 -1.18431,-0.489213 -1.55385,-1.087133 z m 16,-32 -0.67188,-1.087133 1.11286,-1.112867 1.11287,-1.112868 1.11287,1.112868 1.11287,1.112867 -0.67189,1.087133 c -0.36954,0.597922 -1.06877,1.087132 -1.55385,1.087132 -0.48508,0 -1.18431,-0.48921 -1.55385,-1.087132 z m -14,0 -0.67188,-1.087133 1.11286,-1.112867 1.11287,-1.112868 1.11287,1.112868 1.11287,1.112867 -0.67189,1.087133 c -0.36954,0.597922 -1.06877,1.087132 -1.55385,1.087132 -0.48508,0 -1.18431,-0.48921 -1.55385,-1.087132 z m 26,-8 -0.67188,-1.087133 1.11286,-1.112867 1.11287,-1.112868 1.11287,1.112868 1.11287,1.112867 -0.67189,1.087133 c -0.36954,0.597922 -1.06877,1.087132 -1.55385,1.087132 -0.48508,0 -1.18431,-0.48921 -1.55385,-1.087132 z m -34.29866,44.406683 c 0.0811,-0.45075 0.0267,-13.082047 -0.12102,-28.069551 l -0.26851,-27.25 22.62102,0 22.62102,0 0,1.8 c 0,0.99 0.48695,2.286946 1.0821,2.882102 l 1.0821,1.082102 -1.3248,2.121354 -1.32481,2.121354 1.05954,1.679713 c 0.58274,0.923843 1.81696,2.157486 2.7427,2.741429 l 1.68317,1.061716 1.68317,-1.061716 c 0.92574,-0.583943 2.15996,-1.817586 2.7427,-2.741429 l 1.05954,-1.679713 -1.32481,-2.121354 -1.3248,-2.121354 1.0821,-1.082102 c 0.59515,-0.595156 1.06713,-1.779602 1.04883,-2.632102 -0.0183,-0.8525 -0.87793,-2.5625 -1.91029,-3.8 l -1.87702,-2.25 -27.58971,0 -27.58971,0 -0.21154,24.5 c -0.11634,13.475004 -0.22884,26.862504 -0.25,29.750008 l -0.0385,5.249993 2.25,0.31955 2.25,0.31955 0.14749,-0.81955 z m -3.70134,-4.406683 -0.67189,-1.08713 1.11287,-1.112874 1.11287,-1.11286 1.11287,1.11286 1.11287,1.112874 -0.67189,1.08713 c -0.36954,0.59792 -1.06877,1.087133 -1.55385,1.087133 -0.48508,0 -1.18431,-0.489213 -1.55385,-1.087133 z m 52,-40 -0.67188,-1.087133 1.11286,-1.112867 1.11287,-1.112868 1.11287,1.112868 1.11287,1.112867 -0.67189,1.087133 c -0.36954,0.597922 -1.06877,1.087132 -1.55385,1.087132 -0.48508,0 -1.18431,-0.48921 -1.55385,-1.087132 z m 0,-8 -0.67188,-1.087133 1.11286,-1.112867 1.11287,-1.112868 1.11287,1.112868 1.11287,1.112867 -0.67189,1.087133 c -0.36954,0.597922 -1.06877,1.087132 -1.55385,1.087132 -0.48508,0 -1.18431,-0.48921 -1.55385,-1.087132 z m -68.155,52.462653 0.70885,-0.70885 0,-4.774313 0,-4.774324 -1,-0.61803 -1,-0.61804 0,-13.440981 0,-13.440983 -11,0 -11,0 0,-2.845012 0,-2.845013 2,-1.809975 2,-1.809975 0,-1.690025 0,-1.690025 -2,-1.809975 -2,-1.809975 0,-2.845013 0,-2.845012 -14.5,0 -14.5,0 0,5.377555 0,5.377556 -1.5,1.244889 -1.5,1.244889 0,1.722568 0,1.722568 1.82874,1.654987 1.82874,1.654988 1.51627,0 1.51627,0 1.65499,-1.828741 1.65499,-1.82874 0,-1.516272 0,-1.516272 -2,-1.809975 -2,-1.809975 0,-3.345013 0,-3.345012 11.5,0 11.5,0 0,1.877555 0,1.877556 -1.5,1.244889 -1.5,1.244889 0,1.755111 0,1.755111 1.5,1.244889 1.5,1.244889 0,4.877556 0,4.877555 11.13503,0 11.13503,0 -0.38503,17.750004 -0.38503,17.749997 2.04115,0.29218 2.04115,0.29219 0.70885,-0.70885 z m -3.845,-4.462653 -0.67189,-1.08713 1.11287,-1.112874 1.11287,-1.11286 1.11287,1.11286 1.11287,1.112874 -0.67189,1.08713 c -0.36954,0.59792 -1.06877,1.087133 -1.55385,1.087133 -0.48508,0 -1.18431,-0.489213 -1.55385,-1.087133 z m -48,-40 -0.67189,-1.087133 1.11287,-1.112867 1.11287,-1.112868 1.11287,1.112868 1.11287,1.112867 -0.67189,1.087133 c -0.36954,0.597922 -1.06877,1.087132 -1.55385,1.087132 -0.48508,0 -1.18431,-0.48921 -1.55385,-1.087132 z m 26,-4 -0.67189,-1.087133 1.11287,-1.112867 1.11287,-1.112868 1.11287,1.112868 1.11287,1.112867 -0.67189,1.087133 c -0.36954,0.597922 -1.06877,1.087132 -1.55385,1.087132 -0.48508,0 -1.18431,-0.48921 -1.55385,-1.087132 z m 16.0603,48.076693 0.69517,-1.1248 -0.69133,-8.734807 -0.69134,-8.73481 1.59053,-1.32002 1.59052,-1.32001 0,-1.755114 0,-1.755111 -1.65466,-1.372444 -1.65465,-1.372445 -11.84535,0.35527 -11.84534,0.355271 0,-6.982826 0,-6.982826 1.5,-1.244889 1.5,-1.244889 0,-1.722568 0,-1.722568 -1.82874,-1.654987 -1.82874,-1.654988 -1.51627,0 -1.51627,0 -1.65499,1.828741 -1.65499,1.82874 0,1.548815 0,1.548815 1.5,1.244889 1.5,1.244889 0,8.877556 0,8.877555 10.25945,0 10.25946,0 1.49054,2.250004 1.49055,2.25 0,9.5 0,9.499997 2.15564,0.30719 2.15564,0.30718 0.69517,-1.12481 z m -4.0603,-4.076693 -0.67189,-1.08713 1.11287,-1.112874 1.11287,-1.11286 1.11287,1.11286 1.11287,1.112874 -0.67189,1.08713 c -0.36954,0.59792 -1.06877,1.087133 -1.55385,1.087133 -0.48508,0 -1.18431,-0.489213 -1.55385,-1.087133 z m 0,-18.000004 -0.67189,-1.087129 1.11287,-1.112867 1.11287,-1.112868 1.11287,1.112868 1.11287,1.112867 -0.67189,1.087129 c -0.36954,0.59793 -1.06877,1.08714 -1.55385,1.08714 -0.48508,0 -1.18431,-0.48921 -1.55385,-1.08714 z m -24,-21.999996 -0.67189,-1.087133 1.11287,-1.112867 1.11287,-1.112868 1.11287,1.112868 1.11287,1.112867 -0.67189,1.087133 c -0.36954,0.597922 -1.06877,1.087132 -1.55385,1.087132 -0.48508,0 -1.18431,-0.48921 -1.55385,-1.087132 z m -42.31879,44.406683 c 0.07,-0.45075 0.0219,-15.687017 -0.10694,-33.858354 l -0.2343,-33.038803 1.60694,-1.333642 1.60694,-1.333641 0,-1.722568 0,-1.722568 -1.82874,-1.654987 -1.82874,-1.654988 -1.51627,0 -1.51627,0 -1.65499,1.828741 -1.65499,1.82874 0,1.548815 0,1.548815 1.60694,1.333641 1.60694,1.333642 -0.35694,33.538803 -0.35694,33.538804 2.25,0.31955 2.25,0.31955 0.12736,-0.81955 z m -3.68121,-4.406683 -0.67189,-1.08713 1.11287,-1.112874 1.11287,-1.11286 1.11287,1.11286 1.11287,1.112874 -0.67189,1.08713 c -0.36954,0.59792 -1.06877,1.087133 -1.55385,1.087133 -0.48508,0 -1.18431,-0.489213 -1.55385,-1.087133 z m 0,-66 -0.67189,-1.087133 1.11287,-1.112867 1.11287,-1.112868 1.11287,1.112868 1.11287,1.112867 -0.67189,1.087133 c -0.36954,0.597922 -1.06877,1.087132 -1.55385,1.087132 -0.48508,0 -1.18431,-0.48921 -1.55385,-1.087132 z m -5.87859,69.771673 c 0.30724,-0.80065 0.41773,-3.419713 0.24553,-5.820133 l -0.31309,-4.364404 -2.5,0 -2.5,0 0,5.500004 0,5.499993 2.25447,0.32014 2.25447,0.32013 0.55862,-1.45573 z m -4.12141,-3.771673 -0.67189,-1.08713 1.11287,-1.112874 1.11287,-1.11286 1.11287,1.11286 1.11287,1.112874 -0.67189,1.08713 c -0.36954,0.59792 -1.06877,1.087133 -1.55385,1.087133 -0.48508,0 -1.18431,-0.489213 -1.55385,-1.087133 z m -6.154999,4.462653 0.70885,-0.70885 0,-4.774313 0,-4.774324 -1,-0.61803 -1,-0.61804 0,-11.940981 0,-11.940983 1.37756,0 1.37755,0 1.244889,1.5 1.24489,1.5 1.72257,0 1.72256,0 1.65499,-1.828741 1.65499,-1.82874 0,-1.516272 0,-1.516272 -2,-1.809975 -2,-1.809975 0,-2.845013 0,-2.845012 -14.999999,0 -15,0 0,-8.845012 0,-8.845013 2,-1.809975 2,-1.809975 0,-1.690025 0,-1.690025 -1.82874,-1.654987 -1.82874,-1.654988 -1.51627,0 -1.51627,0 -1.65499,1.828741 -1.65499,1.82874 0,1.548815 0,1.548815 1.5,1.244889 1.5,1.244889 0,10.877556 0,10.877555 15,0 14.999999,0 0,1.845012 0,1.845013 -1.828739,1.654987 -1.82874,1.654988 -2.17126,0 -2.17126,0 -0.21154,14 c -0.11634,7.700004 -0.22884,16.362504 -0.25,19.250008 l -0.0385,5.249993 2.04115,0.29218 2.04115,0.29219 0.70885,-0.70885 z m -3.845,-4.462653 -0.67189,-1.08713 1.11287,-1.112874 1.11287,-1.11286 1.11287,1.11286 1.11287,1.112874 -0.67189,1.08713 c -0.36954,0.59792 -1.06877,1.087133 -1.55385,1.087133 -0.48508,0 -1.18431,-0.489213 -1.55385,-1.087133 z m 7.999999,-32 -0.67189,-1.087133 1.11287,-1.112867 1.11287,-1.112868 1.11287,1.112868 1.11287,1.112867 -0.67189,1.087133 c -0.36954,0.597922 -1.06877,1.087132 -1.55385,1.087132 -0.48508,0 -1.18431,-0.48921 -1.55385,-1.087132 z m -29.999999,-34 -0.67189,-1.087133 1.11287,-1.112867 1.11287,-1.112868 1.11287,1.112868 1.11287,1.112867 -0.67189,1.087133 c -0.36954,0.597922 -1.06877,1.087132 -1.55385,1.087132 -0.48508,0 -1.18431,-0.48921 -1.55385,-1.087132 z m 5.845,70.462653 0.70885,-0.70885 0,-4.774313 0,-4.774324 -1,-0.61803 -1,-0.61804 0,-3.20385 0,-3.20386 2.1682,-0.98713 c 1.19252,-0.54292 2.65272,-1.77462 3.24489,-2.73712 l 1.07668,-1.750004 -1.06172,-1.683169 c -0.58394,-0.925743 -1.81758,-2.159961 -2.74142,-2.742705 l -1.67972,-1.059536 -2.12135,1.324807 -2.12136,1.324807 -1.0821,-1.082102 c -0.59515,-0.595156 -1.82236,-1.082102 -2.72711,-1.082102 l -1.64501,0 -1.80998,2 -1.80998,2 -5.19825,0 -5.19826,0 -0.69651,11.650244 -0.69652,11.650237 0.94354,0.94354 0.94354,0.94354 1.85622,-0.35277 1.85622,-0.35278 0.31049,-4.880513 0.31049,-4.880524 -1.06049,-1.06049 -1.06049,-1.06048 0,-4.8 0,-4.8 4.37756,0 4.37755,0 1.24489,1.5 1.24489,1.5 1.67755,0 c 0.92266,0 2.24877,-0.5625 2.94692,-1.25 l 1.26936,-1.25 -0.31936,10.5 -0.31936,10.499997 2.04115,0.29218 2.04115,0.29219 0.70885,-0.70885 z m -3.845,-4.462653 -0.67189,-1.08713 1.11287,-1.112874 1.11287,-1.11286 1.11287,1.11286 1.11287,1.112874 -0.67189,1.08713 c -0.36954,0.59792 -1.06877,1.087133 -1.55385,1.087133 -0.48508,0 -1.18431,-0.489213 -1.55385,-1.087133 z m -20,0 -0.67189,-1.08713 1.11287,-1.112874 1.11287,-1.11286 1.11287,1.11286 1.11287,1.112874 -0.67189,1.08713 c -0.36954,0.59792 -1.06877,1.087133 -1.553851,1.087133 -0.485079,0 -1.184309,-0.489213 -1.55385,-1.087133 z m 22,-18.000004 -0.67189,-1.087129 1.11287,-1.112867 1.11287,-1.112868 1.11287,1.112868 1.11287,1.112867 -0.67189,1.087129 c -0.36954,0.59793 -1.06877,1.08714 -1.55385,1.08714 -0.48508,0 -1.18431,-0.48921 -1.55385,-1.08714 z m -8,0 -0.67189,-1.087129 1.11287,-1.112867 1.11287,-1.112868 1.11287,1.112868 1.11287,1.112867 -0.67189,1.087129 c -0.36954,0.59793 -1.06877,1.08714 -1.55385,1.08714 -0.48508,0 -1.18431,-0.48921 -1.55385,-1.08714 z m -19.85168,21.701537 c 0.29244,-0.76207 0.39082,-3.349573 0.21862,-5.749993 l -0.31309,-4.364404 -2.5,0 -2.5,0 -0.31955,2.25 -0.31955,2.250004 -11.93045,0 -11.93045,0 0,-10.845024 0,-10.845009 2,-1.809975 2,-1.809975 0,-1.645013 c 0,-0.904756 -0.48695,-2.131958 -1.0821,-2.727114 l -1.0821,-1.082102 1.3248,-2.121354 1.32481,-2.121354 -1.05954,-1.679713 c -0.58274,-0.923843 -1.81696,-2.157486 -2.7427,-2.741429 L 17.43707,56.632299 15.7539,57.694015 c -0.92574,0.583943 -2.15996,1.817586 -2.7427,2.741429 l -1.05954,1.679713 1.32481,2.121354 1.3248,2.121354 -1.0821,1.082102 c -0.59515,0.595156 -1.0821,1.837002 -1.0821,2.759657 l 0,1.677556 1.5,1.244889 1.5,1.244889 0,12.877555 0,12.877557 13.38337,0 13.38337,0 0.52301,2 0.52301,2 2.12501,0 2.125,0 0.5317,-1.3856 z m -4.14832,-3.701533 -0.67189,-1.08713 1.11287,-1.112874 1.11287,-1.11286 1.11287,1.11286 1.11287,1.112874 -0.67189,1.08713 c -0.36954,0.59792 -1.06877,1.087133 -1.553851,1.087133 -0.485079,0 -1.184309,-0.489213 -1.55385,-1.087133 z m -28,-28 -0.67189,-1.087133 1.11287,-1.112867 1.11287,-1.112868 1.11287,1.112868 1.11287,1.112867 -0.67189,1.087133 c -0.36954,0.597922 -1.06877,1.087132 -1.553851,1.087132 -0.485079,0 -1.184309,-0.48921 -1.55385,-1.087132 z m 0,-8 -0.67189,-1.087133 1.11287,-1.112867 1.11287,-1.112868 1.11287,1.112868 1.11287,1.112867 -0.67189,1.087133 c -0.36954,0.597922 -1.06877,1.087132 -1.553851,1.087132 -0.485079,0 -1.184309,-0.48921 -1.55385,-1.087132 z m 89.717139,-14.371904 1.12041,-2.459036 -1.64185,-2.505781 -1.64185,-2.50578 0,-2.412739 0,-2.412739 1.5,-1.244889 1.5,-1.244889 0,-1.722568 0,-1.722568 -1.82874,-1.654987 -1.82874,-1.654988 -1.51627,0 -1.516269,0 -1.65499,1.828741 -1.65499,1.82874 0,1.548815 0,1.548815 1.5,1.244889 1.5,1.244889 0,2.377556 0,2.377555 -6.27749,0 -6.2775,0 -2.2225,1.556704 -2.22251,1.556704 0,2.243296 0,2.243296 1.2,1.2 1.2,1.2 9.82144,0 9.821439,0 1.12041,-2.459036 z m -9.717139,-1.628096 -0.67189,-1.087133 1.11287,-1.112867 1.11287,-1.112868 1.11287,1.112868 1.11287,1.112867 -0.67189,1.087133 c -0.36954,0.597922 -1.06877,1.087132 -1.55385,1.087132 -0.48508,0 -1.18431,-0.48921 -1.55385,-1.087132 z m -8,0 -0.67189,-1.087133 1.11287,-1.112867 1.11287,-1.112868 1.11287,1.112868 1.11287,1.112867 -0.67189,1.087133 c -0.36954,0.597922 -1.06877,1.087132 -1.55385,1.087132 -0.48508,0 -1.18431,-0.48921 -1.55385,-1.087132 z m 12,-14 -0.67189,-1.087133 1.112869,-1.112867 1.11287,-1.112868 1.11287,1.112868 1.11287,1.112867 -0.67189,1.087133 c -0.36954,0.597922 -1.06877,1.087132 -1.55385,1.087132 -0.48508,0 -1.18431,-0.48921 -1.553849,-1.087132 z m -9.10114,2.258391 1.65499,-1.82874 0,-1.548815 0,-1.548815 -1.5,-1.244889 -1.5,-1.244889 0,-2.755111 0,-2.755111 1.5,-1.244889 1.5,-1.244889 0,-1.722568 0,-1.722568 -1.82874,-1.654987 -1.82874,-1.654988 -1.51627,0 -1.51627,0 -1.65499,1.828741 -1.65499,1.82874 0,1.548815 0,1.548815 1.5,1.244889 1.5,1.244889 0,2.755111 0,2.755111 -1.5,1.244889 -1.5,1.244889 0,1.722568 0,1.722568 1.82874,1.654987 1.82874,1.654988 1.51627,0 1.51627,0 1.65499,-1.828741 z m -4.89886,-2.258391 -0.67189,-1.087133 1.11287,-1.112867 1.11287,-1.112868 1.11287,1.112868 1.11287,1.112867 -0.67189,1.087133 c -0.36954,0.597922 -1.06877,1.087132 -1.55385,1.087132 -0.48508,0 -1.18431,-0.48921 -1.55385,-1.087132 z m 0,-14 -0.67189,-1.087133 1.11287,-1.112867 1.11287,-1.112868 1.11287,1.112868 1.11287,1.112867 -0.67189,1.087133 c -0.36954,0.597922 -1.06877,1.087132 -1.55385,1.087132 -0.48508,0 -1.18431,-0.48921 -1.55385,-1.087132 z m -49.44615,16.587132 1.24489,-1.5 7.87755,0 7.87756,0 0,-8.877555 0,-8.877556 1.5,-1.244889 1.5,-1.244889 0,-1.722568 0,-1.722568 -1.82874,-1.6549884 -1.82874,-1.654988 -1.51627,0 -1.51627,0 -1.65499,1.828741 -1.65499,1.8287414 0,1.548815 0,1.548815 1.5,1.244889 1.5,1.244889 0,6.877556 0,6.877555 -5.87756,0 -5.87755,0 -1.24489,-1.5 -1.24489,-1.5 -1.72257,0 -1.72256,0 -1.65499,1.828741 -1.65499,1.82874 0,1.516272 0,1.516272 1.82874,1.654987 1.82874,1.654988 1.54882,0 1.54881,0 1.24489,-1.5 z m -4.55385,-2.587132 -0.67189,-1.087133 1.11287,-1.112867 1.11287,-1.112868 1.11287,1.112868 1.11287,1.112867 -0.67189,1.087133 c -0.36954,0.597922 -1.06877,1.087132 -1.553851,1.087132 -0.485079,0 -1.184309,-0.48921 -1.55385,-1.087132 z m 18,-20 -0.67189,-1.087133 1.11287,-1.112867 1.11287,-1.1128684 1.11287,1.1128684 1.11287,1.112867 -0.67189,1.087133 c -0.36954,0.597922 -1.06877,1.087132 -1.553851,1.087132 -0.485079,0 -1.184309,-0.48921 -1.55385,-1.087132 z m 202.898859,16.258391 1.65499,-1.82874 0,-1.516272 0,-1.516272 -1.82874,-1.654987 c -1.00581,-0.910244 -2.49081,-1.654988 -3.3,-1.654988 -0.80919,0 -1.95821,0.486946 -2.55336,1.082102 l -1.0821,1.082102 -2.12136,-1.324807 -2.12135,-1.324807 -1.67971,1.059536 c -0.92385,0.582744 -2.15749,1.816962 -2.74143,2.742705 l -1.06172,1.683169 1.06172,1.683169 c 0.58394,0.925743 1.81758,2.159961 2.74143,2.742705 l 1.67971,1.059536 2.12135,-1.324807 2.12136,-1.324807 1.0821,1.082102 c 0.59515,0.595156 1.82236,1.082102 2.72711,1.082102 l 1.64502,0 1.65498,-1.828741 z m -4.89886,-2.258391 -0.67188,-1.087133 1.11286,-1.112867 1.11287,-1.112868 1.11287,1.112868 1.11287,1.112867 -0.67189,1.087133 c -0.36954,0.597922 -1.06877,1.087132 -1.55385,1.087132 -0.48508,0 -1.18431,-0.48921 -1.55385,-1.087132 z m -8,0 -0.67188,-1.087133 1.11286,-1.112867 1.11287,-1.112868 1.11287,1.112868 1.11287,1.112867 -0.67189,1.087133 c -0.36954,0.597922 -1.06877,1.087132 -1.55385,1.087132 -0.48508,0 -1.18431,-0.48921 -1.55385,-1.087132 z m -9.10114,2.258391 1.65499,-1.82874 0,-1.516272 0,-1.516272 -1.82874,-1.654987 c -1.00581,-0.910244 -2.49081,-1.654988 -3.3,-1.654988 -0.80919,0 -1.95821,0.486946 -2.55336,1.082102 l -1.08211,1.082102 -2.12135,-1.324807 -2.12135,-1.324807 -1.67972,1.059536 c -0.92384,0.582744 -2.15748,1.816962 -2.74142,2.742705 l -1.06172,1.683169 1.06172,1.683169 c 0.58394,0.925743 1.81758,2.159961 2.74142,2.742705 l 1.67972,1.059536 2.12135,-1.324807 2.12135,-1.324807 1.08211,1.082102 c 0.59515,0.595156 1.82236,1.082102 2.72711,1.082102 l 1.64502,0 1.65498,-1.828741 z m -4.89886,-2.258391 -0.67188,-1.087133 1.11286,-1.112867 1.11287,-1.112868 1.11287,1.112868 1.11287,1.112867 -0.67189,1.087133 c -0.36954,0.597922 -1.06877,1.087132 -1.55385,1.087132 -0.48508,0 -1.18431,-0.48921 -1.55385,-1.087132 z m -8,0 -0.67189,-1.087133 1.11287,-1.112867 1.11287,-1.112868 1.11287,1.112868 1.11287,1.112867 -0.67189,1.087133 c -0.36954,0.597922 -1.06877,1.087132 -1.55385,1.087132 -0.48508,0 -1.18431,-0.48921 -1.55385,-1.087132 z m 72.89886,0.258391 1.65499,-1.82874 0,-1.516272 0,-1.516272 -1.82874,-1.654987 -1.82874,-1.654988 -1.51627,0 -1.51627,0 -1.80998,2 -1.80997,2 -9.20902,0 -9.20901,0 -2.772,-4 -2.772,-4 -32.30064,0 -32.30064,0 -0.31336,3.25 -0.31336,3.25 -20.5,0.277486 -20.5,0.277486 -2.3151,-1.231307 -2.3151,-1.231306 -1.6849,1.062807 -1.6849,1.062807 0,2.282027 0,2.282027 1.74654,1.101692 1.74655,1.101691 1.98989,-1.242705 1.98988,-1.242705 20.02714,0 20.02714,0 1.98988,1.242705 1.98989,1.242705 1.74655,-1.094832 1.74654,-1.094833 0.29826,-1.985378 0.29825,-1.985378 -1.54825,-1.284939 c -0.85154,-0.706717 -1.54826,-1.679839 -1.54826,-2.162495 l 0,-0.877555 29.364,0 29.364,0 2.772,4 2.772,4 11.24156,0 11.24155,0 1.24489,1.5 1.24489,1.5 1.72257,0 1.72256,0 1.65499,-1.828741 z m -4.89886,-2.258391 -0.67188,-1.087133 1.11286,-1.112867 1.11287,-1.112868 1.11287,1.112868 1.11286,1.112867 -0.67188,1.087133 c -0.36954,0.597922 -1.06877,1.087132 -1.55385,1.087132 -0.48508,0 -1.18431,-0.48921 -1.55385,-1.087132 z m -92,0 -0.67189,-1.087133 1.11287,-1.112867 1.11287,-1.112868 1.11287,1.112868 1.11287,1.112867 -0.67189,1.087133 c -0.36954,0.597922 -1.06877,1.087132 -1.55385,1.087132 -0.48508,0 -1.18431,-0.48921 -1.55385,-1.087132 z m -48,0 -0.67189,-1.087133 1.11287,-1.112867 1.11287,-1.112868 1.11287,1.112868 1.11287,1.112867 -0.67189,1.087133 c -0.36954,0.597922 -1.06877,1.087132 -1.55385,1.087132 -0.48508,0 -1.18431,-0.48921 -1.55385,-1.087132 z M 20.782081,25.293328 c 0.91025,-1.005807 1.65499,-2.432874 1.65499,-3.171259 0,-0.738385 -0.74474,-2.165452 -1.65499,-3.171259 l -1.65499,-1.828741 1.65499,-1.828741 1.65499,-1.82874 0,-1.516272 0,-1.516272 -1.82874,-1.6549884 -1.82874,-1.654988 -1.51627,0 -1.51627,0 -1.65499,1.828741 c -0.91025,1.005808 -1.65499,2.4328754 -1.65499,3.1712604 0,0.738385 0.74474,2.165452 1.65499,3.171259 l 1.65499,1.828741 -1.65499,1.828741 -1.65499,1.82874 0,1.516272 0,1.516272 1.82874,1.654987 1.82874,1.654988 1.51627,0 1.51627,0 1.65499,-1.828741 z m -4.89886,-2.258391 -0.67189,-1.087133 1.11287,-1.112867 1.11287,-1.112868 1.11287,1.112868 1.11287,1.112867 -0.67189,1.087133 c -0.859731,1.391078 -2.247971,1.391078 -3.107701,0 z m 0,-10 -0.67189,-1.087133 1.11287,-1.112867 1.11287,-1.1128684 1.11287,1.1128684 1.11287,1.112867 -0.67189,1.087133 c -0.36954,0.597922 -1.06877,1.087132 -1.553851,1.087132 -0.485079,0 -1.184309,-0.48921 -1.55385,-1.087132 z m 114.553849,8.587132 1.24489,-1.5 1.75511,0 1.75511,0 1.20502,-1.451961 1.20502,-1.45196 -0.33257,-1.690856 -0.33258,-1.690856 -1.61408,-1.016331 -1.61407,-1.016331 -1.88593,0.812835 c -1.03725,0.447059 -2.71201,0.708852 -3.72167,0.581762 l -1.83575,-0.231073 -1.91425,1.732373 -1.91425,1.732373 0,1.690025 0,1.690025 1.82874,1.654987 1.82874,1.654988 1.54882,0 1.54881,0 1.24489,-1.5 z m -4.55385,-2.587132 -0.67189,-1.087133 1.11287,-1.112867 1.11287,-1.112868 1.11287,1.112868 1.11287,1.112867 -0.67189,1.087133 c -0.36954,0.597922 -1.06877,1.087132 -1.55385,1.087132 -0.48508,0 -1.18431,-0.48921 -1.55385,-1.087132 z m 6,-2 -0.67189,-1.087133 1.11287,-1.112867 1.11287,-1.112868 1.11287,1.112868 1.11287,1.112867 -0.67189,1.087133 c -0.36954,0.597922 -1.06877,1.087132 -1.55385,1.087132 -0.48508,0 -1.18431,-0.48921 -1.55385,-1.087132 z"
     id="path2999"
     inkscape:connector-curvature="0" />
</svg>
