  0
SECTION
  2
HEADER
  9
$ACADVER
  1
AC1009
  9
$EXTMAX
 10
60.7200012207031
 20
128.5
 30
0.0
  9
$EXTMIN
 10
0.0
 20
0.0
 30
0.0
  9
$INSUNITS
 70
     4
  9
$LUNITS
 70
     2
  9
$LUPREC
 70
     4
  9
$MEASUREMENT
 70
     1
  0
ENDSEC
  0
SECTION
  2
TABLES
  0
TABLE
  2
LAYER
 70
     1
  0
LAYER
  2
0
 70
     0
 62
     7
  6
Continuous
  0
LAYER
  2
Default
 70
     0
 62
    70
  6
Continuous
  0
ENDTAB
  0
TABLE
  2
APPID
 70
     1
  0
APPID
  2
ACAD
 70
     0
  0
ENDTAB
  0
ENDSEC
  0
SECTION
  2
ENTITIES
  0
TEXT
  8
Default
 10
15.1929999999972
 20
105.779
 30
0.0
 40
8.0
  1
in1
 72
     0
 73
     1
  0
TEXT
  8
Default
 10
24.3810000000028
 20
91.076
 30
0.0
 40
10.8
  1
CV
 72
     0
 73
     1
  0
TEXT
  8
Default
 10
20.91
 20
15.2000000000001
 30
0.0
 40
12.0
  1
out
 72
     0
 73
     1
  0
TEXT
  8
Default
 10
10.5499999999997
 20
118.330000000002
 30
0.0
 40
8.1
  1
DUAL-VCA
 72
     0
 73
     1
  0
POLYLINE
  8
Default
 66
     1
 10
0.0
 20
0.0
 30
0.0
 70
     0
  0
VERTEX
  8
Default
 10
60.7199999999956
 20
0.0
 42
0.0
  0
VERTEX
  8
Default
 10
0.0
 20
0.0
 42
0.0
  0
SEQEND
  0
POLYLINE
  8
Default
 66
     1
 10
0.0
 20
0.0
 30
0.0
 70
     1
  0
VERTEX
  8
Default
 10
60.7199999999956
 20
0.0
 42
0.0
  0
VERTEX
  8
Default
 10
60.7199999999956
 20
128.5
 42
0.0
  0
VERTEX
  8
Default
 10
0.0
 20
128.5
 42
0.0
  0
VERTEX
  8
Default
 10
0.0
 20
0.0
 42
0.0
  0
SEQEND
  0
TEXT
  8
Default
 10
35.2029999999972
 20
105.759
 30
0.0
 40
8.0
  1
in2
 72
     0
 73
     1
  0
TEXT
  8
Default
 10
23.762999999997
 20
69.1289999999995
 30
0.0
 40
8.0
  1
offset
 72
     0
 73
     1
  0
POLYLINE
  8
Default
 66
     1
 10
0.0
 20
0.0
 30
0.0
 70
     0
  0
VERTEX
  8
Default
 10
10.9
 20
41.18
 42
0.0
  0
VERTEX
  8
Default
 10
49.52
 20
41.0000000000002
 42
0.0
  0
SEQEND
  0
TEXT
  8
Default
 10
25.1929999999972
 20
42.859
 30
0.0
 40
8.0
  1
Lin
 72
     0
 73
     1
  0
TEXT
  8
Default
 10
24.2729999999972
 20
34.249
 30
0.0
 40
8.0
  1
Log
 72
     0
 73
     1
  0
POLYLINE
  8
Default
 66
     1
 10
0.0
 20
0.0
 30
0.0
 70
     0
  0
VERTEX
  8
Default
 10
10.6399999999995
 20
107.94
 42
0.0
  0
VERTEX
  8
Default
 10
10.29
 20
18.1
 42
0.0
  0
SEQEND
  0
POINT
  8
Default
 10
49.1000000000005
 20
17.79
 30
0.0
  0
POINT
  8
Default
 10
17.6199999999999
 20
67.2099999999998
 30
0.0
  0
POINT
  8
Default
 10
7.29
 20
125.5
 30
0.0
  0
POINT
  8
Default
 10
7.29
 20
3.0
 30
0.0
  0
POINT
  8
Default
 10
10.69
 20
41.18
 30
0.0
  0
POINT
  8
Default
 10
10.5899999999995
 20
94.56
 30
0.0
  0
POINT
  8
Default
 10
10.6399999999995
 20
107.94
 30
0.0
  0
POINT
  8
Default
 10
10.29
 20
18.1
 30
0.0
  0
POINT
  8
Default
 10
49.46
 20
67.33
 30
0.0
  0
POINT
  8
Default
 10
49.31
 20
41.0000000000002
 30
0.0
  0
POINT
  8
Default
 10
50.07
 20
94.86
 30
0.0
  0
POINT
  8
Default
 10
49.91
 20
108.24
 30
0.0
  0
POINT
  8
Default
 10
53.0099999999956
 20
3.0
 30
0.0
  0
POINT
  8
Default
 10
53.0099999999956
 20
125.5
 30
0.0
  0
ENDSEC
  0
EOF
